<svg width="30" height="26" viewBox="0 0 30 26" fill="none" xmlns="http://www.w3.org/2000/svg">
<path d="M8.58543 21.1768H11.0001V18.3633H14.2196V16.2533H11.0001V13.4399H8.58543V16.2533H5.36592V18.3633H8.58543V21.1768ZM16.6342 20.1217H24.683V18.0117H16.6342V20.1217ZM16.6342 16.605H24.683V14.4949H16.6342V16.605ZM18.405 11.2595L20.6586 9.29009L22.9123 11.2595L24.6025 9.78244L22.3489 7.74272L24.6025 5.77333L22.9123 4.29629L20.6586 6.26568L18.405 4.29629L16.7147 5.77333L18.9684 7.74272L16.7147 9.78244L18.405 11.2595ZM5.76836 8.79774H13.8171V6.68769H5.76836V8.79774ZM3.75617 25.3969C2.8708 25.3969 2.11287 25.1214 1.48238 24.5704C0.851896 24.0195 0.536652 23.3571 0.536652 22.5835V2.88958C0.536652 2.11589 0.851896 1.45357 1.48238 0.902611C2.11287 0.351652 2.8708 0.0761719 3.75617 0.0761719H26.2928C27.1781 0.0761719 27.9361 0.351652 28.5665 0.902611C29.197 1.45357 29.5123 2.11589 29.5123 2.88958V22.5835C29.5123 23.3571 29.197 24.0195 28.5665 24.5704C27.9361 25.1214 27.1781 25.3969 26.2928 25.3969H3.75617ZM3.75617 22.5835H26.2928V2.88958H3.75617V22.5835Z" fill="#649BC5"/>
</svg>
