<svg width="30" height="26" viewBox="0 0 30 26" fill="none" xmlns="http://www.w3.org/2000/svg">
<path d="M6.67324 25.3969C5.07958 25.3969 3.71531 24.777 2.58043 23.5374C1.44555 22.2977 0.878113 20.8075 0.878113 19.0667V6.40635C0.878113 4.66555 1.44555 3.17532 2.58043 1.93566C3.71531 0.696001 5.07958 0.0761719 6.67324 0.0761719H24.0586C25.6523 0.0761719 27.0165 0.696001 28.1514 1.93566C29.2863 3.17532 29.8537 4.66555 29.8537 6.40635V19.0667C29.8537 20.8075 29.2863 22.2977 28.1514 23.5374C27.0165 24.777 25.6523 25.3969 24.0586 25.3969H6.67324ZM6.67324 6.40635H24.0586C24.5898 6.40635 25.0969 6.47228 25.5798 6.60416C26.0628 6.73604 26.5215 6.94705 26.9562 7.23718V6.40635C26.9562 5.53595 26.6724 4.79083 26.105 4.171C25.5376 3.55117 24.8554 3.24126 24.0586 3.24126H6.67324C5.87641 3.24126 5.19427 3.55117 4.62683 4.171C4.05939 4.79083 3.77567 5.53595 3.77567 6.40635V7.23718C4.21031 6.94705 4.66909 6.73604 5.15202 6.60416C5.63494 6.47228 6.14202 6.40635 6.67324 6.40635ZM3.99299 11.5496L20.1107 15.8225C20.328 15.8752 20.5453 15.8752 20.7626 15.8225C20.9799 15.7697 21.1852 15.6642 21.3784 15.506L26.4129 10.9166C26.1473 10.521 25.8092 10.1979 25.3987 9.94729C24.9882 9.69672 24.5415 9.57143 24.0586 9.57143H6.67324C6.04543 9.57143 5.4961 9.74947 5.02525 10.1055C4.55439 10.4616 4.21031 10.943 3.99299 11.5496Z" fill="#649BC5"/>
</svg>
