<svg width="344" height="335" viewBox="0 0 344 335" fill="none" xmlns="http://www.w3.org/2000/svg">
<path d="M90.4655 141.079V139.577L93.1593 139.148L94.5063 139.577H100.568L101.914 139.148L102.812 140.221L104.159 141.508H110.445L111.119 142.794V144.081L110.67 145.154L112.017 146.44H113.139V147.942L114.261 150.086L117.18 151.373L118.751 152.875L120.098 153.732L121.221 155.234H121.894V156.306L123.69 158.236L123.017 159.523H121.894L120.547 160.381V161.453V166.815H118.976L116.731 168.317V169.603L118.302 170.247H120.547L118.976 171.105L118.302 172.606L116.731 173.893H115.159L114.261 174.536L117.404 175.609V178.611L116.731 179.684H115.159L113.588 179.255L113.139 180.97V183.973H110.67L109.098 182.901L107.527 183.33V185.045H105.955L106.853 182.472L107.527 179.684L108.649 178.611L107.527 176.681V175.609L105.955 174.536V171.105L107.51 170.238L105.506 169.174L105.955 166.815H104.159V165.099L105.057 164.242H102.812V166.815H101.466V168.317L102.812 169.603V171.105L101.466 173.893L98.5471 175.609L96.3022 176.038L93.1593 177.753L90.4655 178.611H88.2206L86.8736 177.753L84.8532 176.038L83.2818 175.609L82.1593 173.893L79.6899 172.606L77.445 170.247L76.0981 169.603L75.4246 167.673H74.0776L72.9552 165.743L71.3838 164.242V162.311L72.9552 161.239L74.0776 162.311H75.4246L76.7715 161.239L78.1185 161.453L80.5879 161.239L83.2818 159.523L83.9552 157.164L85.3022 156.306L86.2001 155.234L83.9552 155.663L83.2818 156.306H81.4858L78.5675 157.164L77.445 158.236H76.0981L74.0776 157.164H72.9552L70.7103 156.306L69.5878 154.805L67.5674 153.304L66.2205 151.802L65.7715 150.086V148.585L67.5674 147.942L68.2409 145.797V144.51L68.9144 142.794L76.0981 143.009L77.445 144.51H78.5675H80.5879L81.4858 143.652L83.2818 143.009H84.8532L85.3022 142.151H85.7512V143.652H88.2206L89.343 142.794L90.4655 141.079Z" fill="url(#paint0_linear_807_592)" fill-opacity="0.8" stroke="black" stroke-opacity="0.25" stroke-width="0.5"/>
<path d="M117.698 227.962L117.021 228.396L116.795 229.697H117.698V230.348L118.375 231.867L119.051 232.735V234.254L119.954 235.339L120.631 234.471H121.308L121.759 234.037V227.962L121.308 227.094H118.375L117.698 227.962Z" fill="url(#paint1_linear_807_592)" fill-opacity="0.8" stroke="black" stroke-opacity="0.25" stroke-width="0.5"/>
<path d="M123.807 32.5588V30.8613L126.974 32.1344H129.462L130.141 33.8319L133.534 34.4685H134.891L135.796 37.0147V39.3488L136.474 40.6219L137.379 40.1975L139.415 41.895V43.1681H140.32L141.224 44.4412L143.486 45.7144L142.581 48.2606H144.391L145.974 49.1093L148.236 51.4434V52.2921L146.201 51.4434L144.843 49.7459L143.712 50.1703H142.355L142.129 51.019L140.772 51.4434L139.867 52.2921L138.058 53.7774L137.153 53.1409V57.3846H135.569L134.438 58.6577H132.629L131.724 59.7186L130.819 58.6577H126.974L125.843 58.0212V55.4749H123.355V54.6262L121.997 52.5043L120.188 51.019L118.831 49.5337L120.414 48.2606V46.1387L118.831 45.7144V43.5925L120.414 42.7438L121.093 41.4706H118.152L117.926 39.7731L118.831 39.3488V37.8635H116.795V35.5294H118.831L119.283 34.2563H120.188L121.093 32.5588H123.807Z" fill="url(#paint2_linear_807_592)" fill-opacity="0.8" stroke="black" stroke-opacity="0.25" stroke-width="0.5"/>
<path d="M154.118 53.4855L154.565 52.8397L156.126 53.4855L157.241 55.2075V56.2838H158.357H160.365L162.372 59.2973V60.5888L162.818 62.0956L164.157 63.1718L164.826 64.2481L164.157 65.9701L165.272 67.4769L164.157 69.8447L165.495 70.4904L166.164 71.1362H165.272L164.826 71.9972H163.265L160.811 71.1362L159.918 71.7819H158.357L156.795 72.8582L155.68 74.365L155.011 76.087L155.234 77.3785L155.68 78.67L155.234 79.3158L154.565 79.7463L154.118 80.6073L152.111 80.1768H151.218L149.88 78.67L149.434 76.948L146.757 75.4412L145.195 74.365V72.643L143.857 70.7057H140.065V67.9074L138.726 65.9701L138.503 64.8939L136.942 63.1718H135.826V60.5888H136.942L137.834 58.8668L137.388 57.5753V53.055L138.503 53.916L141.18 51.5482L142.295 51.1177L142.742 50.2567H143.857L144.972 49.8262L146.311 51.5482L148.318 52.4092L149.88 53.4855H154.118Z" fill="url(#paint3_linear_807_592)" fill-opacity="0.8" stroke="black" stroke-opacity="0.25" stroke-width="0.5"/>
<path d="M134.437 58.811L135.341 57.5234H137.148L137.599 59.0256L136.696 60.5278H135.567V63.3175H136.696L138.503 65.0342V66.1072L139.858 67.824V70.6137H143.697L145.052 72.5451L145.278 74.4764L146.633 75.3348L145.504 75.9786L145.956 77.9099L146.859 79.8413V80.6996H145.504L144.149 82.8456L142.568 83.704L141.439 83.2748L140.31 84.5623V85.8499L139.406 86.7083L138.277 87.1375H133.308L131.953 87.7813L131.275 88.8542L130.598 87.5667L129.92 85.8499L128.791 85.6353L127.436 85.2061H125.177L124.274 85.6353L122.919 85.2061H119.983L118.176 83.704V80.2705L120.434 77.4807L124.726 73.618V69.5407L123.596 66.751L126.307 63.5321L128.565 62.2445L131.049 61.1715L131.727 60.0986L132.63 58.811H134.437Z" fill="url(#paint4_linear_807_592)" fill-opacity="0.8" stroke="black" stroke-opacity="0.25" stroke-width="0.5"/>
<path d="M155.662 81.2326L154.307 80.3831V79.4707L155.21 79.1089L155.662 78.4717L154.984 77.1975V75.9233L155.662 74.2243L157.017 72.7378L158.598 71.6759H160.404L160.856 71.0388L163.566 71.6759H164.921L165.599 71.0388H166.276L168.309 69.3398L168.76 69.977L169.212 71.6759L171.47 73.5872L172.825 74.6491L176.213 74.8615L177.116 75.0738L177.794 76.5604L178.697 77.1975L179.601 78.8965L183.214 79.746L184.117 80.3831L185.472 81.8697V82.5068L184.569 83.781L183.214 84.2057L182.762 85.4799L181.407 86.3294L180.504 87.6036V88.6655V89.7273L179.601 91.0016V92.9129L179.149 93.9747L177.794 95.0366V96.7355L177.116 97.3727L175.987 96.7355H174.18L172.6 95.6737L171.922 96.3108L170.793 95.6737L169.212 93.9747H167.857L166.276 92.9129L165.599 91.851L166.276 90.5768L164.921 89.7273L163.114 88.2408L162.211 87.1789L161.533 85.4799L159.501 84.8428V87.1789L158.598 88.2408H156.565L155.662 87.1789L156.113 84.8428V84.2057L156.565 82.9315V81.8697L155.662 81.2326Z" fill="url(#paint5_linear_807_592)" fill-opacity="0.8" stroke="black" stroke-opacity="0.25" stroke-width="0.5"/>
<path d="M145.673 75.8119L146.802 75.3848L149.286 76.8797L150.19 78.5882L151.319 80.0832L152.448 79.8696L154.029 80.5103V81.5781L152.9 82.4324L152.448 83.2866L151.093 84.568L150.416 85.2087L150.19 86.7036L149.286 87.5579L148.835 88.8393V90.3342L149.738 91.1885V94.3919L149.286 95.6733L150.416 96.7411L151.319 97.5954V100.158L152.448 101.226L153.351 103.575V104.857L152.9 106.565L152.222 107.206L151.319 106.992L150.19 107.633L148.383 108.914L147.028 107.633V104.857L146.35 103.362L145.673 103.575L145.221 104.857L144.318 105.497L142.285 103.362V104.857L140.479 105.497L139.801 107.633L138.446 106.565V103.362L136.865 101.44L135.736 99.731L134.381 98.0225V96.314L133.478 95.2462L133.026 93.5377V92.2563H130.09L127.832 91.1885L126.928 90.3342V91.402H125.348L124.67 90.3342V88.8393L123.992 86.7036L122.863 85.2087L124.67 85.6358L125.348 85.2087H127.606L128.961 85.6358L130.09 85.8494L130.768 87.7714L131.445 88.8393L132.123 87.7714L133.478 87.1308H138.446L139.801 86.7036L140.479 85.8494V84.568L141.608 83.2866L142.737 83.7137L144.318 82.8595L145.673 80.7239H147.028V79.8696L146.125 77.9475L145.673 75.8119Z" fill="url(#paint6_linear_807_592)" fill-opacity="0.8" stroke="black" stroke-opacity="0.25" stroke-width="0.5"/>
<path d="M130.118 92.6666H133.276V93.7349V95.6579L134.404 96.7263V98.4356L135.758 99.7176L136.434 101.213L138.465 103.35V106.982L140.044 107.837L140.721 105.7L142.3 105.273V103.35L144.33 105.7L145.232 105.273L145.683 103.777H146.36L146.811 105.273V107.837L148.165 109.119L149.97 108.264L151.549 109.546V111.042L152.902 112.751V114.247L153.805 115.102L152.226 116.384L151.549 117.879L152.226 118.307L156.512 116.384H157.189L158.993 117.025V118.307L157.189 119.802H156.512L155.609 121.084H154.707L152.902 121.939H150.872L149.97 123.648H149.067L148.165 124.717L145.683 125.785L144.781 127.067L143.653 127.708L143.202 129.417L143.653 130.699L144.33 131.554L146.135 132.409L149.97 132.195L150.872 131.554H152.226V134.973H148.165L146.811 135.186V136.255L146.36 137.537L146.811 139.032H149.067L148.391 140.101L147.488 141.596H146.811V144.801L144.781 144.374L143.653 143.519H139.593V144.374V145.656L138.239 146.297V147.365H134.178V146.297L136.434 145.656V141.169H138.239L136.434 139.032L134.855 138.391H132.374L130.795 137.537L131.246 136.682L130.343 135.827L128.99 137.109L127.862 137.537L127.185 140.528V143.947L128.539 145.229V149.716L127.862 150.784L125.606 151.425L124.704 152.28V152.921L125.606 153.562H126.508V154.63L124.704 155.912H121.997V155.057H121.32L120.192 153.562L118.838 152.921L117.259 151.425L114.327 149.716L113.424 148.006V146.297H112.071L110.717 145.229L111.394 143.947V142.665L110.717 141.596H104.626L103.047 140.528L102.145 139.032L100.34 139.673H94.7004L92.8957 139.032L90.6398 139.673V138.391L89.7375 136.682V135.4L87.0304 132.836V129.417H86.3536L83.6466 128.99L81.6163 127.067V120.443L80.4883 119.802H78.458L76.6533 118.734L75.9766 117.666V114.674L77.3301 113.82L78.458 111.683L80.4883 110.187L80.9395 109.333L81.6163 106.982L83.6466 106.128L84.7745 104.632L86.3536 105.487L87.9328 106.982L88.3839 108.478H90.6398L92.219 106.982H98.3098L98.9866 104.632L100.34 102.923H101.017L103.047 98.4356L104.626 97.581L106.657 96.0853L108.01 95.6579L109.138 94.3759L110.04 91.8119L111.168 90.3163L111.845 88.1796V86.8976L114.552 84.7609L116.583 83.9062H118.387L120.192 85.6156H122.899L124.027 87.3249L124.704 89.2479V90.3163L125.606 91.8119H126.96V90.3163L128.088 91.8119L130.118 92.6666Z" fill="url(#paint7_linear_807_592)" fill-opacity="0.8" stroke="black" stroke-opacity="0.25" stroke-width="0.5"/>
<path d="M156.428 82.1091L153.941 80.6094L153.715 81.6806L152.584 82.5376L152.132 83.3946L150.097 85.3228L149.87 86.8225L148.966 87.6795L148.514 88.965V90.4647L149.418 91.3217V94.5353L148.966 95.8208L151.001 97.749V100.32L152.132 101.391L153.036 103.748V105.033L152.584 106.747L151.906 107.39L151.001 107.176L149.418 108.033L151.227 109.533L151.453 111.032L152.584 112.746V114.246L153.488 115.103L151.906 116.388L151.227 117.888L152.132 118.317L155.976 116.388H156.88L158.463 117.031H159.142L162.307 118.317L163.438 118.102L165.699 118.745L167.508 120.673V123.244L166.604 123.673V125.387L165.247 127.529L164.342 129.457H163.212L162.533 130.957H160.724L159.82 131.6V133.1L160.724 133.742L160.95 135.456L160.046 136.313H159.368V137.599L159.82 138.456V141.455L161.177 141.884L162.081 142.741L163.438 143.812L164.568 144.026L165.473 143.383H166.604V141.669L165.699 139.955H165.021L164.342 138.241L164.116 137.17L162.986 135.456V133.1L164.342 132.457L165.699 131.814H166.604V133.957L167.508 134.385L169.995 134.171L171.578 135.456H174.292L175.196 134.171L176.327 133.742L176.779 133.1H179.719V135.456H180.849L182.432 134.814H184.92L184.467 136.313L184.92 137.17H186.729L187.181 136.742L188.764 134.814L191.477 135.028L192.608 135.456L193.738 136.528L195.321 137.17L196.904 137.599L198.939 139.313H202.105L203.236 140.17L203.462 147.668H207.306L208.21 146.169L209.115 144.883L209.567 143.383L210.246 142.526L209.567 141.455V141.027H210.698L210.924 139.313L210.019 138.241L208.889 137.599L208.663 136.313V135.028L209.793 133.528L210.472 132.885L212.055 132.457L212.733 131.814L214.09 131.171L215.22 130.314L216.125 129.457L217.029 129.243L218.386 129.672L220.421 129.243L221.326 128.386L219.969 127.315L218.612 126.886L217.029 125.815L216.125 124.958V124.315L215.673 123.459H216.803V122.602L215.673 121.53L214.768 120.888L216.125 119.602H218.386V117.674L215.673 115.531L213.864 112.532V111.889H212.055L211.15 111.247L209.115 111.032V111.675L208.437 112.532L207.758 111.247L203.462 111.032L203.236 109.533L202.783 108.676H198.939L197.809 106.747H195.321L192.382 105.89L190.799 105.033L188.085 102.891L185.824 101.605L184.467 100.106L182.885 99.2488H181.076L179.493 98.606L177.684 97.1063L177.005 97.749L175.875 97.1063H174.066L172.483 96.0351L171.804 96.6778L170.448 95.8208L169.317 94.3211H167.734L166.151 93.2499L165.473 92.1786L166.151 90.8932L165.021 90.2504L162.986 88.5365L162.081 87.4652L161.403 85.7513L159.368 85.1085V87.4652L158.463 88.5365H156.428L155.524 87.4652L155.976 85.3228V84.4658L156.428 83.1803V82.1091Z" fill="url(#paint8_linear_807_592)" fill-opacity="0.8" stroke="black" stroke-opacity="0.25" stroke-width="0.5"/>
<path d="M122.282 166.766H121.158H120.934V160.531L122.282 159.671H123.405L124.079 158.381L122.282 156.446V156.016H124.754L126.551 154.726V153.651H125.652L124.754 153.006V152.361L125.652 151.501L127.899 150.856L128.573 149.781V145.266L127.225 143.976V140.536L127.899 137.526L129.023 137.096L130.371 135.806L131.27 136.666L130.82 137.526L132.393 138.386H135.09L136.438 139.031L138.236 141.181H136.438V145.696L134.191 146.341V147.201L138.236 147.416L138.46 146.341L139.584 145.696V143.546H143.628L144.752 144.406L146.774 144.836V141.611H147.448L149.021 139.031H146.774L146.325 137.526L146.774 136.236V135.161L148.122 134.946H152.167V131.507H150.819L149.92 132.152L146.1 132.367L144.302 131.507L143.628 130.647L143.179 129.357L143.628 127.637L144.752 126.992L145.651 125.702L148.122 124.627L149.021 123.552H149.92L150.819 121.832H152.841L154.639 120.972H155.537L156.436 119.682H157.11L158.908 118.177V116.887H159.357L162.503 118.177L163.627 117.962L165.874 118.607L167.671 120.542V123.122L166.772 123.552V125.272L165.424 127.422L164.525 129.357H163.402L162.728 130.862H160.93L160.031 131.507V133.012L160.93 133.657L161.155 135.376L160.256 136.236H159.582V137.526L160.031 138.386V141.396L161.38 141.826L162.278 142.686L163.627 143.761L164.75 143.976L165.649 143.331H166.772V141.611L165.874 139.891H165.2L164.525 138.171L164.301 137.096L163.177 135.376V133.012L165.874 131.722H166.772V133.872L167.671 134.302L170.143 134.087L171.716 135.376H174.412L175.311 134.087L176.435 133.657L176.884 133.012H179.805V135.376H180.929L182.502 134.732H184.973L184.524 136.236L184.973 137.096H186.771L188.793 134.732L191.49 134.946L192.613 135.376L193.737 136.451L195.309 137.096L196.882 137.526L198.905 139.246H202.05L203.174 140.106L203.399 148.061L201.826 148.706H196.433L195.759 148.276L194.86 147.631H192.838L192.388 149.996V151.501H194.86L196.208 152.576H196.882L198.006 153.436V154.511L196.208 156.016L194.86 157.521L193.737 157.306L193.512 159.671L192.388 160.101L191.265 160.961L191.04 161.821H188.793L188.119 162.251L187.445 163.541V164.186L186.546 165.691H185.647L184.973 166.551V168.486L184.074 169.131V172.141L182.502 172.786L182.277 172.141L180.929 171.496L179.58 169.776H177.558V170.851L175.536 170.421L175.086 169.561L173.963 170.206H172.839L171.941 168.916L171.491 169.131H169.918L168.795 169.561L166.098 170.421L164.301 170.851H163.402L162.728 170.206H161.155L159.807 170.851L159.133 172.141L157.11 172.571H155.537L153.29 171.926L151.942 171.496L153.29 170.206V169.131H149.695L146.999 169.561L146.774 170.851L145.426 172.141L144.977 174.076L141.831 174.291L140.932 175.151L139.584 174.076L138.91 172.141L138.236 172.571H133.966L131.719 171.496H130.371L129.248 170.206L126.776 169.561L124.754 169.131L123.405 167.626V165.906L122.282 166.766Z" fill="url(#paint9_linear_807_592)" fill-opacity="0.8" stroke="black" stroke-opacity="0.25" stroke-width="0.5"/>
<path d="M215.166 111.699H213.815V112.34L215.616 115.333L218.316 117.47V119.394H216.066L214.715 120.677L215.616 121.318L216.741 122.173V123.242H215.616L216.066 124.097V124.738L216.966 125.593L218.542 126.662L220.117 127.089L221.242 128.158L220.342 129.013L218.316 129.441L216.966 129.013L216.066 129.227L215.166 130.082L214.04 130.937L212.69 131.578L212.015 132.22L210.439 132.647L209.764 133.288L208.639 134.785V136.281L208.864 137.35L209.989 137.991L210.889 139.274L210.664 140.77H214.49L215.391 139.915L216.066 140.342L217.416 141.411L219.217 142.052L219.667 143.549H221.242L222.368 141.625L223.268 140.77L224.168 142.48H225.068L227.094 141.411H230.02L231.37 140.556V138.419H233.846L235.421 139.487L236.097 140.77L237.222 141.625L238.122 142.907L239.023 142.694L239.473 142.052V141.625L240.148 139.915L241.948 140.129H243.524L244.424 139.274V136.495L247.8 134.143L248.475 133.288H251.401V131.365L253.427 130.937L254.327 129.868L254.102 129.227L252.301 127.944L251.401 126.876V126.234L254.777 124.097L255.227 122.173H255.902L256.353 121.104L255.227 119.394L253.427 121.104L252.301 121.532H248.25L247.35 122.173L244.649 121.532L243.749 120.035H242.849L241.948 121.532H241.273L239.023 120.035H238.572L234.521 118.967L233.171 120.035L231.595 119.394V117.898L230.47 117.043L229.57 117.898L228.444 118.112H226.644V117.898L225.068 117.043L224.393 116.188L223.493 116.401L221.467 115.119L220.792 114.05L221.017 112.554H220.117L217.191 110.844L216.066 111.058L215.166 111.699Z" fill="url(#paint10_linear_807_592)" fill-opacity="0.8" stroke="black" stroke-opacity="0.25" stroke-width="0.5"/>
<path d="M106.314 188.124V185.12H107.888V183.403L109.461 182.974L111.035 184.047H113.508V181.043L113.957 179.326L115.531 179.755H117.104L117.779 178.682V175.678L114.632 174.605L115.531 173.961H117.104L118.678 172.674L119.352 171.172L120.926 170.313H118.678L117.104 169.669V168.382L119.352 166.88H120.926V166.665H122.499L123.398 165.807V167.523L124.747 169.026L129.243 170.099L130.367 171.386H131.715L133.963 172.459H138.234L138.909 172.03L139.583 173.961L140.932 175.034L141.831 174.176L144.978 173.961L145.427 172.03L146.776 170.742L147.001 169.455L149.698 169.026H153.295V170.099L151.946 171.386L155.543 172.459H157.116L159.139 172.03L159.814 170.742L161.163 170.099H162.736L163.41 170.742H164.31L169.929 169.026H171.503L171.952 168.811L172.851 170.099H173.975L175.099 169.455L175.549 170.313L177.572 170.742V169.669H179.595L180.944 171.386L182.293 172.03L182.742 173.317L180.269 175.463L181.393 177.18L181.618 178.468L180.944 179.755L182.742 180.828V182.76H180.944V184.047H182.068V184.906L180.944 185.764V187.051L182.293 187.91L184.091 190.056V192.202H182.293L181.618 191.343H180.944L180.494 192.631V194.777L179.595 195.421V198.64L178.471 198.425H177.347L176.448 197.567V196.064L175.999 194.991V192.416L176.448 191.987L175.999 190.914L174.875 189.412H173.975V190.485H172.402L171.503 190.056L169.929 189.627L169.704 188.983H168.131L167.681 189.412H166.557L165.883 188.339L164.984 187.266H162.511L160.938 186.837V189.197L160.039 191.343V192.202L158.915 192.846L156.892 192.202L156.442 192.631L155.318 194.991L156.892 196.923V197.567L155.768 198.425L155.318 199.069L154.419 199.927L153.52 200.356L153.295 201.644H151.946L151.721 201.215L151.272 200.786L150.598 201L149.474 202.502L148.35 203.361H147.001L146.551 204.219V205.936H145.652L144.978 207.653H142.28L141.606 209.369V210.871H140.707L138.909 210.442L138.009 210.871L135.312 210.013H134.638L133.963 211.301L134.638 212.374V214.52H131.266L130.591 215.593H129.468L128.793 214.949L127.444 215.593L126.995 216.88L125.421 217.309V218.811L124.297 218.168H122.949L122.05 218.811V220.314L122.949 221.601H124.297L124.073 223.962L123.398 224.606L121.6 227.181H118.678L118.003 228.039L117.329 228.468L116.43 226.966L115.081 225.249V223.103L114.182 222.245L113.508 220.743V218.597L112.833 216.88V215.807L112.384 213.661V212.374L111.709 210.871V209.584L110.81 208.082V206.794L109.911 205.292L110.136 204.219L109.012 202.073V199.498L107.888 198.64V190.914L106.314 188.124Z" fill="url(#paint11_linear_807_592)" fill-opacity="0.8" stroke="black" stroke-opacity="0.25" stroke-width="0.5"/>
<path d="M120.105 235.684V235.255L120.778 234.396H121.45L121.898 233.753V227.959L121.674 226.886L123.243 224.526L123.915 223.882L124.139 221.522H122.795L121.898 220.235V218.733L122.795 218.089H124.139L125.26 218.733V217.231L126.828 216.802L127.276 215.514L128.621 214.871L129.293 215.514H130.414L131.086 214.441H134.447V212.296L133.775 211.223L134.447 209.935H135.119L137.809 210.794L138.705 210.365L140.498 210.794H141.394V209.292L142.066 207.575H144.755L145.428 205.859H146.324V204.142L146.772 203.284H148.117L149.237 202.426L150.358 200.924L151.03 200.709L151.478 201.138L151.702 201.567H152.823L153.047 202.426V205.859L152.823 206.502L152.598 208.219L153.719 209.292L153.271 209.935L153.047 210.579L151.702 211.223L151.478 212.081L151.702 213.154V216.587L151.478 218.733H150.582V220.02H151.478L153.047 220.664V222.381L152.598 223.668L151.478 224.097H149.237L148.789 224.526V227.53L148.117 228.818V230.105L149.013 231.178L149.237 232.465L147.893 233.109L145.428 232.894L145.876 234.182L146.324 235.04L145.428 236.113V237.4L145.876 238.044L146.324 239.117L146.772 239.331V241.477L147.22 240.404L148.789 240.19H150.134L151.478 240.404V242.765H149.237L148.789 241.477H147.893L147.22 242.121L146.996 242.979L147.669 243.623V244.91L147.893 245.554L149.461 245.339L150.806 244.052L152.598 245.339L155.063 244.267L155.96 244.052L156.856 244.267H157.753L157.977 245.125L158.425 246.198L159.321 246.627H160.666L161.338 247.914V249.631H163.131V250.06L161.786 251.562V253.493L160.442 253.708L159.321 254.566L157.977 253.708H156.856L155.512 253.493L155.063 254.137L154.391 255.424H153.047L153.271 257.57L152.598 258.428V259.716L154.615 260.359V261.432V262.505L152.374 262.72L151.926 263.363H148.565L146.996 264.007L146.1 265.294H144.755L143.635 264.007H142.066L141.17 263.363H139.825L138.705 262.72L136.688 262.076L136.016 261.003L134.223 260.145L133.103 258.857L131.758 257.784L130.862 256.497L127.725 254.78L127.052 253.064H126.604V249.845L126.156 248.343V246.627L125.484 245.339V244.696L124.139 243.623V240.833L122.795 240.19V238.473L121.226 236.328L120.105 235.684Z" fill="url(#paint12_linear_807_592)" fill-opacity="0.8" stroke="black" stroke-opacity="0.25" stroke-width="0.5"/>
<path d="M128.328 256.339L128.104 254.85L131.025 256.552L131.924 257.829L133.272 258.893L134.396 260.17L136.194 261.021L137.093 262.085L138.89 262.724L140.014 263.362H141.362L142.261 264.001L142.711 265.491L141.362 266.342L142.037 268.044H143.385L143.834 269.534L145.183 269.747L145.857 271.237L145.632 272.726L146.531 274.642V276.131L147.205 277.408L148.329 278.047L149.453 277.408H150.127L150.352 278.898V283.154L150.801 284.857L152.374 285.07L151.925 286.56L150.352 287.198V288.262L149.453 289.965L150.127 291.454V292.306L150.352 293.157V294.859L149.453 296.349L147.655 294.859L146.531 293.157H145.632L145.183 291.454L143.834 289.539L142.711 288.262V286.347L142.037 285.07V284.431H142.711L142.037 281.452V280.601L141.362 279.962L140.688 277.834L139.565 276.131V275.493L138.89 273.578L137.542 272.726L137.093 271.024V269.747L135.07 266.767L133.946 264.001H133.048L131.699 262.298L130.8 260.383L128.328 256.339Z" fill="url(#paint13_linear_807_592)" fill-opacity="0.8" stroke="black" stroke-opacity="0.25" stroke-width="0.5"/>
<path d="M254.911 114.688L253.318 113.626L253.773 112.564V110.016L254.456 109.166V108.105L254.911 106.406L256.049 106.618L256.959 105.981L258.779 105.344H261.51V107.68L262.42 108.317L261.965 110.016V112.777L261.51 113.414L260.827 113.839L258.552 114.051L257.642 114.688H254.911Z" fill="url(#paint14_linear_807_592)" fill-opacity="0.8" stroke="black" stroke-opacity="0.25" stroke-width="0.5"/>
<path d="M292.138 110.951V117.205L293.946 116.126L296.433 116.342L297.563 115.264H299.824L301.632 116.342H307.51L307.962 115.695L309.771 115.479L310.223 113.754L311.127 113.107L311.353 111.814L313.84 110.089L315.423 110.304L316.553 108.579H317.909L318.361 107.932L320.848 107.717L321.979 106.854H323.787L325.144 106.638L326.048 105.345H328.761L329.665 106.207L328.761 108.579V110.304L329.439 111.814V113.107L327.856 112.892L325.822 113.323L324.691 114.617L323.787 114.833L322.883 116.126L323.109 119.361L325.822 118.067L327.856 116.558L330.795 113.754L332.83 113.107H334.412L336.221 112.676L337.351 113.107L338.029 113.754L338.934 113.97L339.838 115.048H340.742V113.107L339.612 112.245L339.16 111.167L338.934 109.442L339.612 108.363L340.742 107.285L341.873 107.07L343.229 106.207V103.404L342.777 102.326L341.42 101.679L340.516 101.894H339.16L338.934 100.601L338.029 100.385L337.351 99.5223L336.673 99.3067L334.864 99.9536L335.09 99.0911L335.769 98.2285V97.1503L334.864 95.2096L333.508 94.1314L333.056 93.7001L333.508 92.1907L333.056 91.7594H332.152L331.926 91.3281H328.535L328.308 91.7594L327.178 92.1907L326.5 93.0532L324.917 93.4845L323.787 94.347L321.979 94.1314L320.848 93.4845H319.492L318.588 92.6219L316.101 92.1907L314.744 92.6219L314.518 94.7783L312.936 96.0721L311.579 97.366L309.771 97.5816L309.319 98.2285L307.058 98.8754L305.702 98.6598L305.023 99.3067L302.763 100.601V101.463H301.406L301.18 102.541L299.598 104.051L298.694 104.266V105.776L297.337 107.07L294.398 107.501H293.72L292.138 108.148H290.329L288.973 107.501L288.068 109.657L288.973 110.951H292.138Z" fill="url(#paint15_linear_807_592)" fill-opacity="0.8" stroke="black" stroke-opacity="0.25" stroke-width="0.5"/>
<path d="M321.974 116.061H322.873L323.098 119.3L321.974 119.947V120.811L321.075 122.107L321.974 124.698L322.873 125.778L321.524 127.289L320.85 127.721L320.626 129.233L319.727 129.449L319.052 130.528L318.378 131.392L317.929 131.608L317.255 132.04V130.744L316.58 130.097H315.681L314.783 130.528L313.659 131.176H312.76L310.962 130.528H309.614L308.715 131.176V132.904L307.367 134.199H305.344L306.243 132.688V131.824L304.895 131.176L305.344 129.449L306.692 128.585L308.041 127.073L309.389 127.505L310.962 125.994L311.861 124.482L312.311 123.618L313.659 121.675L315.232 120.595H315.681L318.378 118.22L321.974 116.061Z" fill="url(#paint16_linear_807_592)" fill-opacity="0.8" stroke="black" stroke-opacity="0.25" stroke-width="0.5"/>
<path d="M304.99 134.551L305.437 134.125H307.45L308.792 132.847V131.143L309.686 130.504H311.028L312.817 131.143H313.935L315.724 130.078H316.619L317.289 130.717V131.782L316.619 134.125L318.184 135.19L318.408 135.616L317.737 137.533L317.066 138.385L316.619 139.237L315.724 140.089L314.83 141.58L314.382 143.284L313.488 144.562V145.627L313.041 147.118H310.804L309.91 146.692H308.344L306.779 146.479H305.885L304.99 146.053V145.414H301.859V141.154L303.201 139.663V137.533L303.872 136.681L304.543 135.616L304.99 134.551Z" fill="url(#paint17_linear_807_592)" fill-opacity="0.8" stroke="black" stroke-opacity="0.25" stroke-width="0.5"/>
<path d="M300.798 141.896L301.693 142.326V145.329H304.826V145.973L305.721 146.402L305.273 147.046V150.264L305.721 151.981V154.985L305.273 155.628L303.931 156.058L303.259 156.916L302.812 157.774V160.778L303.259 161.967V163.782L301.246 165.284L301.022 166.356L299.008 165.284H298.337L298.113 165.713H297.442V163.567V161.851L296.994 161.636V159.491L295.875 157.13L295.428 155.628V152.839L294.98 151.981L294.309 150.264L293.861 149.621L295.204 147.475V145.973L295.651 144.686L296.547 143.828L298.784 143.184L299.455 142.326L300.798 141.896Z" fill="url(#paint18_linear_807_592)" fill-opacity="0.8" stroke="black" stroke-opacity="0.25" stroke-width="0.5"/>
<path d="M209.368 143.465L208.914 144.958H210.05L210.732 145.598V147.092L213.458 149.865V150.719H214.594V152.852L215.276 154.133L216.185 155.626L217.775 156.479H218.684V158.186L216.867 159.04L215.276 159.893V161.813L215.731 162.027L219.593 163.307L221.184 162.453L224.365 161.813L225.955 162.027V163.307L225.046 164.8L225.955 165.654H227.091L228 165.227L230.727 164.8L231.408 165.654L233.908 166.081L234.817 164.8V162.027L235.271 161.387H236.862L237.77 162.453L240.497 163.307L241.633 163.947L242.315 163.094V162.027L240.951 159.893L239.134 159.04L238.452 158.186V157.76L239.134 157.333V156.479H236.862L235.271 155.626L233.908 154.773V151.572L234.817 150.719H235.271L235.953 151.572L237.316 151.359L238.225 150.719L239.134 149.865H240.951L241.633 148.799L242.315 147.732L244.133 146.878L244.587 147.732L246.177 148.585L246.859 148.159V146.025H248.677L249.358 144.745H249.813L250.495 143.891V143.038H251.403V141.545L251.858 140.691L252.767 140.478V137.918L251.631 135.784V133.65H248.677L247.995 134.504L244.587 136.851V139.838L243.678 140.478L242.088 140.264H240.497L239.588 141.971V142.398L239.134 143.038H238.225L237.316 141.971L236.18 141.118L235.498 139.838L233.908 138.771H231.408V141.118L229.818 141.971H227.091L225.046 143.038H224.138L223.229 141.118L222.093 141.971L221.184 143.891H219.593L219.139 142.611L216.867 141.545L215.276 140.264L214.367 141.118H209.368V141.545L210.05 142.611L209.368 143.465Z" fill="url(#paint19_linear_807_592)" fill-opacity="0.8" stroke="black" stroke-opacity="0.25" stroke-width="0.5"/>
<path d="M290.084 117.155H292.336L294.137 116.082L296.614 116.296L297.74 115.223H299.992L301.794 116.296H307.648L308.099 115.652L309.9 115.437L310.351 113.719L311.251 113.075L311.477 111.787L313.954 110.068L315.53 110.283L316.656 108.565H318.007L318.457 107.921L320.935 107.706L322.06 106.847H323.862L325.213 106.632L326.114 105.344H328.816L329.717 106.203L328.816 108.565V110.283L329.492 111.787V113.075L328.141 112.86L325.889 113.29L324.763 114.578L323.862 114.793L322.961 116.082H322.06L318.457 118.229L315.98 120.377H315.53L313.954 121.451L312.377 124.028L311.026 125.961L309.45 127.464L308.099 127.034L306.748 128.538L305.397 129.397L305.171 131.115L306.297 131.759V132.618L305.171 134.551L304.496 135.625L304.045 136.699L303.145 137.558V139.705L301.794 141.209V142.497L300.893 142.068L299.542 142.497L299.091 143.356L296.389 144L295.714 144.645L294.813 142.282L293.236 141.209L293.912 139.276V137.987L294.588 137.558H295.488H296.389V136.699L295.488 136.269V136.054L299.317 133.477V132.618L298.641 132.403L297.29 130.041L294.813 128.538L293.912 128.323V126.605L295.488 125.531H290.084L288.733 126.39L288.057 127.464L286.931 127.679L286.256 128.323H284.905L284.229 127.679L282.202 126.82H281.076L279.275 126.39H274.996L273.87 126.605L273.42 127.034L272.294 128.323V129.612L271.618 129.397L271.168 128.538V127.034L270.267 125.531L269.592 124.457L270.267 123.813H270.943V121.665L271.844 121.021V119.733L270.943 118.874L270.718 118.229L273.42 118.444L274.771 117.155H276.347L277.924 117.8L288.508 118.015L290.084 117.155Z" fill="url(#paint20_linear_807_592)" fill-opacity="0.8" stroke="black" stroke-opacity="0.25" stroke-width="0.5"/>
<path d="M271.812 130.122L272.259 129.479V128.193L273.825 126.478L274.943 126.264H279.193L280.983 126.692H282.101L284.114 127.55L284.562 128.193H286.127L286.799 127.55L287.917 127.336L288.588 126.264L289.93 125.406H295.298L293.733 126.478V128.193L294.627 128.407L297.088 129.908L298.43 132.266L299.101 132.48V133.338L295.298 136.125L293.733 135.696L292.838 134.195H290.377L288.141 134.838H286.127L285.009 133.981H282.996L281.877 134.41L280.535 134.195L278.97 134.624H275.614L274.272 133.767L273.601 133.981L271.812 133.552L271.141 133.124L270.693 132.052L271.812 130.98V130.122Z" fill="url(#paint21_linear_807_592)" fill-opacity="0.8" stroke="black" stroke-opacity="0.25" stroke-width="0.5"/>
<path d="M158.849 28.8499H153.9V27.779L153 26.2797L150.75 25.6371L148.951 24.5662L148.276 23.0668L146.701 21.5675L144.451 20.7108L142.651 18.9973L141.076 18.7831L139.502 16.427L137.477 15.1419V13H136.577L134.552 13.6426H133.427L131.853 13H130.278L128.703 13.6426H122.629V15.1419H117.004L117.454 16.427L115.88 18.9973L114.305 18.7831L112.73 20.4966L111.83 23.0668L114.305 24.5662L117.454 24.7803L118.354 26.9222L121.504 27.779V28.8499L122.854 29.0641L123.979 30.5634L127.353 32.0627H129.828L130.278 33.7762L133.427 34.4188H135.002L136.127 36.7749V38.9167L136.577 40.4161L137.477 39.9877L139.502 41.487V42.7721H140.402L141.301 44.2714L143.551 45.3424L142.651 48.1268H144.451L145.801 48.7694L148.276 51.3396V52.1964L149.85 53.2673H152.55H153.9L154.575 52.6248L155.925 53.2673L157.274 54.7667V55.8376L158.399 56.266L160.649 55.8376V56.266L162.449 57.1227L163.799 58.1937L165.149 56.266V58.622H168.298L169.198 58.1937H170.098L171.223 56.266V49.412H168.748L166.498 48.1268L166.948 46.4133L167.398 45.3424L166.948 44.2714L166.498 42.3438H171.223L171.898 39.9877V38.2742H173.697V37.6316V36.3465H176.172L177.072 35.0614V32.7053L177.747 30.135V28.8499L176.172 27.779V27.1364H174.372L173.248 26.708L171.223 24.9945L170.098 23.0668H166.948L164.699 25.6371L158.849 28.8499Z" fill="url(#paint22_linear_807_592)" fill-opacity="0.8" stroke="black" stroke-opacity="0.25" stroke-width="0.5"/>
<path d="M253.528 115.243L253.079 113.527L254.653 114.6H257.352L258.252 113.956L260.276 113.742L260.951 113.312L261.625 115.243L262.75 116.316V117.174H267.248L268.597 118.247H270.397L270.622 118.891L271.521 119.749V121.036L270.622 121.68V123.826H269.947L269.272 124.469L268.597 124.684L268.148 126.4H267.923L266.573 125.971L264.999 124.898L263.874 124.04V122.753L262.975 121.895H262.3V123.182H261.625L260.276 122.538L258.027 122.753L254.653 125.971V127.044L256.002 128.117L256.902 128.546L257.577 130.262L259.151 131.764L260.501 131.549L261.625 132.408L262.75 133.695L262.525 134.339H260.501L258.477 134.768L257.352 135.626L257.127 136.484L254.203 138.415V140.132L254.653 140.99L255.553 141.848L256.452 142.277L257.352 142.921H260.051V145.066L260.501 145.924V146.783L259.601 147.641L258.477 148.285V149.143L259.151 150.43L259.376 150.859L260.501 151.503L260.726 153.219L262.525 155.365L261.85 157.296V158.583L262.75 160.085V163.303L263.649 165.02V165.878L262.3 166.307L263.649 167.594V171.027L262.3 170.169H259.601V167.809H259.376L258.477 170.169H256.902L255.553 169.096L254.653 167.809V166.092L255.553 165.02L254.203 164.161L253.079 161.801L252.854 162.445V163.303L253.753 164.591L253.978 165.234V166.092L253.304 167.165L252.629 168.023L249.705 169.525L249.03 169.74L248.58 169.311L248.131 168.452L247.681 168.023H246.331L245.207 166.307L243.183 165.234L241.383 163.947L242.058 163.089V162.016L240.709 159.87L238.909 159.012L238.235 158.154V157.725L238.909 157.081V156.438H236.66L233.736 154.721V151.503L234.636 150.645H235.086L235.761 151.503L237.11 151.288L238.01 150.645L238.909 149.786H240.709L242.058 147.641L243.857 146.783L244.307 147.641L245.882 148.499L246.556 148.07V145.924H248.356L249.03 144.637H249.48L250.155 143.779V142.921H251.054V141.633L251.504 140.561L252.404 140.346V137.771L251.279 135.626V131.549L253.528 131.12L254.203 129.833L253.978 129.189L252.179 128.117L251.279 126.829V126.4L254.653 124.255L255.103 122.324H255.778L256.227 121.251L255.103 119.535L253.978 120.393L254.653 118.033V116.531L253.528 115.243Z" fill="url(#paint23_linear_807_592)" fill-opacity="0.8" stroke="black" stroke-opacity="0.25" stroke-width="0.5"/>
<path d="M181.442 199.482L179.402 198.626V195.417L180.309 194.775V192.635L180.762 191.351H181.442L182.122 192.207H183.936V191.993V190.067L182.122 187.928L180.762 187.072V185.788L181.896 184.932V184.076H180.762V182.792H182.576V180.867L180.762 179.797L181.442 178.513L181.216 177.443L180.082 175.518L182.576 173.378L182.349 172.736L183.936 172.094V169.098L184.842 168.457V166.531L185.522 165.675H186.429L187.336 164.177V163.535L188.016 162.251L188.696 161.823H190.962L191.189 160.968L192.322 160.112L193.456 159.684L193.682 157.116L194.816 157.544L196.176 156.26L197.989 154.549V153.479L196.856 152.623H196.176L194.816 151.553H192.322V149.841L192.776 147.702H194.816L196.402 148.771H201.842L203.429 148.129V147.702H207.282L208.189 146.204L209.322 144.92H210.229L210.909 145.776V147.06L213.629 149.841V150.697H214.762V152.837L216.349 155.618L217.935 156.474H218.842V158.186L215.442 159.898V161.823L214.536 162.251L212.042 164.605L210.909 165.033V168.029L210.229 169.312L209.549 170.382L209.096 171.666L207.509 174.02L206.829 174.234V174.662H202.069L200.482 176.373H199.802V184.932H202.749L203.429 186.858L202.069 187.928L198.442 185.788L195.722 184.932L194.362 185.788V186.858L195.042 187.928L196.402 189.639V190.709L197.309 192.635V197.342L196.402 198.626L193.682 201.622L191.869 202.692L191.189 203.975V206.757L190.056 206.543H186.882L186.202 206.115L185.522 204.617L184.842 203.547H183.936L183.029 201.836V200.766L182.576 200.338L181.442 199.482Z" fill="url(#paint24_linear_807_592)" fill-opacity="0.8" stroke="black" stroke-opacity="0.25" stroke-width="0.5"/>
<path d="M193.558 206.542L191.539 206.757V203.959L191.988 202.668L194.006 201.592L196.698 198.794L197.595 197.288V192.339L196.698 190.617V189.111L194.903 186.959V185.667L196.249 184.807L198.941 185.883L202.305 187.819L203.651 186.528L202.978 184.807H200.062V176.199H200.735L202.305 174.477H207.015V174.047L207.688 173.831L209.258 171.464L209.707 170.173L211.052 167.806V164.793L212.174 164.363L214.641 161.996L215.538 161.565L219.8 163.072L221.37 162.211L224.51 161.565L226.08 161.78V163.072L225.183 164.578L226.08 165.439H227.426L228.098 165.008L230.79 164.578L231.463 165.439L233.93 165.869L234.827 164.578V161.78L235.276 161.135L237.07 161.35L237.519 162.211L240.435 163.072L241.556 163.717L243.575 165.008L245.593 166.084L246.49 167.591H247.612L248.285 168.236L248.733 169.097L249.182 169.527L246.49 169.958L244.92 170.819L244.023 171.464V172.325L242.902 173.401V175.768L243.575 177.059L244.023 178.566L243.575 180.287L242.453 180.933V182.439L240.435 183.085L239.537 184.161L238.864 185.667L238.192 186.098L237.967 185.667L237.07 185.452L236.173 184.376L236.397 186.528V186.959H235.276L234.154 187.389L231.463 187.174L230.117 186.528H228.547L226.753 188.25L226.977 189.111L226.304 189.971L226.08 191.478L224.958 192.554L223.613 194.06L221.594 193.845L220.248 194.921H218.903V196.858H215.762L213.744 196.642L211.95 194.921L211.501 194.06L209.258 193.845L208.585 194.921V197.503H207.015L206.791 200.946L204.324 201.162L204.548 201.592L201.408 202.022L201.184 200.946H200.511V199.87H199.614L199.165 200.731V204.605L197.819 204.174L196.249 205.25L195.352 205.035L193.558 205.896V206.542Z" fill="url(#paint25_linear_807_592)" fill-opacity="0.8" stroke="black" stroke-opacity="0.25" stroke-width="0.5"/>
<path d="M189.27 208.541V206.618H187.456L186.549 206.191L185.868 204.91L185.188 203.628H184.281L183.374 201.92V200.852L181.786 199.57L179.745 198.716L178.612 198.502H177.478L176.571 197.648V196.153L176.117 194.986V192.522L176.571 192.095L176.117 191.027L174.983 189.532H174.076V190.6H172.716L171.582 190.173L169.994 189.745L169.768 189.105H168.18L167.727 189.532H166.593L165.912 188.464L165.005 187.396H162.738L160.923 186.969V189.318L160.016 191.454V192.308L158.883 192.949L156.842 192.308L156.388 192.949L155.254 195.085L156.842 197.007V197.648L155.708 198.502L155.481 198.929L154.347 199.997L153.44 200.425L153.213 201.706H152.986L153.213 202.56V205.978L152.986 206.618L152.76 208.327L153.894 209.395L153.44 210.036L153.213 210.677L151.853 211.317L151.626 212.172L151.853 213.24V216.657L151.626 218.793L150.719 219.006V220.074H151.626L153.213 220.715V222.424L152.76 223.705L153.667 224.346L156.615 222.21L158.656 221.356L161.604 222.21L164.779 220.929L166.366 222.21L169.541 220.929V219.647L171.808 217.938H173.169L174.53 218.366L175.89 217.084L176.797 216.016L178.612 214.307L180.199 213.453L180.879 214.307H182.467L182.92 212.385L184.734 211.317H185.868L187.909 212.385L188.59 210.463H191.538V208.968L190.177 208.541H189.27Z" fill="url(#paint26_linear_807_592)" fill-opacity="0.8" stroke="black" stroke-opacity="0.25" stroke-width="0.5"/>
<path d="M178.557 248.287L179.678 247.43V251.287L179.006 253.429V255.358L178.557 256.215L178.109 258.143L177.436 258.572L176.764 259.643L175.867 260.286L174.746 261.786H173.625V263.286L174.298 263.929V267.357L173.625 267.786L174.746 268.857V277L174.074 277.428H171.159L170.262 278.071L169.814 278.928V281.071L168.469 281.499L167.348 283.214L166.675 284.499L167.124 285.999L168.469 286.428L171.159 286.642L171.608 287.928L170.262 287.285H166.003L163.985 287.713L163.312 288.356L161.967 288.999H160.846L159.501 290.928V293.713L158.604 294.999L155.466 296.927L154.569 297.356L153.224 297.999H150.758L149.413 296.499L150.309 294.999V293.07L150.085 292.428V291.57L149.413 290.071L150.309 288.356V287.285L151.879 286.642L152.327 285.142L150.758 284.928L150.309 283.214V278.928L150.085 277.428H149.413L148.292 278.071L147.171 277.428L146.498 276.143V274.643L145.601 272.714L145.826 271.214L145.153 269.714L143.808 269.5L143.36 268L142.014 267.786L141.342 266.286L142.687 265.429L142.239 263.929H143.808L144.929 265.215H146.274L147.171 263.929L148.74 263.286H152.103L152.551 262.643L154.793 262.429V260.286L152.776 259.429V258.358L153.448 257.501L153.224 255.358H154.569L155.017 254.072L155.69 253.429L157.035 253.644H158.156L160.622 255.358L162.64 255.144L163.312 254.072L163.985 252.787L165.33 251.929H167.572L169.366 251.501L170.487 250.001H174.746L176.764 247.858L178.557 248.287Z" fill="url(#paint27_linear_807_592)" fill-opacity="0.8" stroke="black" stroke-opacity="0.25" stroke-width="0.5"/>
<path d="M222.631 195.181L223.53 194.327L221.507 194.113L220.159 194.967H218.81V197.103H215.213L213.64 196.889L211.841 195.181L211.392 194.327L209.144 194.113L208.47 195.181V197.744L206.896 197.957L206.671 201.16L204.199 201.374L204.423 201.801L201.276 202.228L201.052 201.16H200.377V200.093H199.478L199.028 201.16V204.791L197.68 204.363L196.106 205.645L195.207 205.004L193.409 206.072V206.712H191.611H190.487L189.138 206.499V208.634H190.037L191.386 209.061V210.556H188.463L187.789 212.478L185.766 211.41H184.642L182.844 212.478L182.394 214.4H180.821L180.146 213.546L178.348 214.4L176.775 216.108L176.1 216.963L174.527 218.457L173.403 218.03H171.829L169.581 219.739V221.02L166.434 222.301L164.861 221.02L161.714 222.301L158.792 221.447L156.544 222.301L153.846 224.437L152.947 223.796L151.823 224.223H149.575L149.126 224.65V227.64L148.451 229.135V230.202L149.351 231.27L149.575 232.551L148.002 233.192L145.754 232.765L146.203 234.26L146.653 235.114L145.754 236.182V237.463L146.203 238.104L146.653 239.171L147.103 239.385V241.307L147.552 240.453L149.126 240.239H150.699L151.823 240.453V242.802H149.575L149.126 241.52H148.227L147.552 242.161L147.327 243.015L148.002 243.656V244.937L148.227 245.578L149.8 245.364L151.149 244.083L152.947 245.364L155.42 244.296L156.319 244.083L157.218 244.296H158.117L158.792 246.218L159.691 246.432L161.039 246.645L161.714 247.927V249.635H163.512V250.062L162.163 251.557V253.479L160.815 253.692L159.691 254.547L160.815 255.401L162.838 255.187L163.737 253.906L164.186 252.838L165.535 251.984H167.783L169.581 251.557L170.705 250.062H174.976L176.999 247.927L178.798 248.354L179.922 247.713V246.218L178.798 243.656L178.348 241.307L178.798 240.025V238.744L177.898 236.609L177.674 231.697L178.573 230.202V229.562L181.046 226.359L182.619 225.718H184.417L184.867 226.359H185.541L186.44 225.931L187.789 224.864V223.796L188.463 222.728V220.806H194.533L199.028 218.885L199.478 218.244V213.332L201.052 212.478L204.199 211.41L206.896 210.129L208.47 208.421L209.144 207.353L210.268 206.712L211.392 205.431L212.066 204.363L213.64 203.296L214.539 202.442H215.438L216.337 201.587L217.686 200.947L220.159 198.598L221.507 197.103L222.631 195.181Z" fill="url(#paint28_linear_807_592)" fill-opacity="0.8" stroke="black" stroke-opacity="0.25" stroke-width="0.5"/>
<path d="M293.054 141.92L293.51 141.072L294.879 142.132L295.791 144.464L295.335 145.949V147.433L293.967 149.553H292.598L292.142 149.977L291.23 151.249V152.521H290.546L290.089 154.005V155.913H287.581L286.44 154.217H285.756L285.528 152.521L284.388 151.673L283.932 149.977V147.857L284.844 147.009L288.265 144.676H289.405L291.23 143.616V143.192L291.686 142.344L293.054 141.92Z" fill="url(#paint29_linear_807_592)" fill-opacity="0.8" stroke="black" stroke-opacity="0.25" stroke-width="0.5"/>
<path d="M132.581 187.021C132.879 187.05 133.168 187.109 133.446 187.193L133.374 187.433C133.642 187.514 133.9 187.621 134.143 187.752L134.26 187.531C134.52 187.671 134.765 187.836 134.991 188.022H134.992L134.834 188.216C135.048 188.393 135.246 188.591 135.422 188.806L135.614 188.646C135.8 188.873 135.964 189.119 136.104 189.38L135.884 189.498C136.014 189.741 136.12 189.998 136.201 190.267L136.439 190.194C136.523 190.472 136.581 190.762 136.61 191.06H136.611L136.362 191.083C136.376 191.22 136.383 191.359 136.383 191.5C136.383 191.641 136.376 191.78 136.362 191.917L136.61 191.939C136.582 192.237 136.523 192.527 136.439 192.805L136.201 192.733C136.12 193.002 136.014 193.259 135.884 193.502L136.104 193.619C135.964 193.88 135.8 194.126 135.614 194.353L135.422 194.194C135.246 194.409 135.048 194.607 134.834 194.784L134.991 194.977C134.765 195.163 134.52 195.328 134.26 195.468L134.143 195.248C133.9 195.379 133.642 195.486 133.374 195.567L133.446 195.806C133.168 195.89 132.879 195.949 132.581 195.978L132.559 195.729C132.422 195.743 132.282 195.75 132.142 195.75C132.001 195.75 131.862 195.743 131.725 195.729L131.701 195.978C131.403 195.948 131.114 195.89 130.836 195.806L130.909 195.567C130.641 195.486 130.384 195.379 130.141 195.248L130.022 195.468C129.762 195.328 129.517 195.163 129.291 194.977L129.449 194.784C129.235 194.607 129.038 194.409 128.861 194.194L128.668 194.353C128.482 194.126 128.318 193.88 128.179 193.619L128.399 193.502C128.27 193.259 128.163 193.002 128.082 192.733L127.843 192.805C127.759 192.527 127.701 192.237 127.672 191.939L127.921 191.917C127.908 191.78 127.9 191.641 127.9 191.5C127.9 191.359 127.908 191.22 127.921 191.083L127.672 191.06C127.701 190.762 127.759 190.472 127.843 190.194L128.082 190.267C128.163 189.998 128.27 189.741 128.399 189.498L128.179 189.38C128.318 189.119 128.482 188.873 128.668 188.646L128.861 188.806C129.038 188.591 129.235 188.393 129.449 188.216L129.291 188.022C129.517 187.836 129.762 187.671 130.022 187.531L130.141 187.752C130.384 187.621 130.641 187.514 130.909 187.433L130.836 187.193C131.114 187.109 131.403 187.051 131.701 187.021L131.725 187.271C131.862 187.257 132.001 187.25 132.142 187.25C132.282 187.25 132.422 187.257 132.559 187.271L132.581 187.021Z" fill="#649BC5" stroke="white" stroke-width="0.5" stroke-dasharray="1 1"/>
<g filter="url(#filter0_d_807_592)">
<rect x="15.8691" y="102" width="95.8125" height="25" rx="9" fill="white"/>
</g>
<path d="M37.3532 110.939C38.3413 110.939 39.1949 111.125 39.9143 111.498C40.6423 111.862 41.1969 112.386 41.5783 113.071C41.9683 113.756 42.1633 114.562 42.1633 115.489C42.1633 116.416 41.9683 117.222 41.5783 117.907C41.1969 118.583 40.6423 119.103 39.9143 119.467C39.1949 119.822 38.3413 120 37.3532 120H34.5323V110.939H37.3532ZM37.3532 119.025C38.5233 119.025 39.4159 118.717 40.0312 118.102C40.6466 117.478 40.9543 116.607 40.9543 115.489C40.9543 114.362 40.6423 113.483 40.0183 112.85C39.4029 112.217 38.5146 111.901 37.3532 111.901H35.7153V119.025H37.3532ZM50.2237 116.165C50.2237 116.39 50.2107 116.629 50.1847 116.88H44.4907C44.534 117.582 44.7723 118.132 45.2057 118.531C45.6477 118.921 46.1807 119.116 46.8047 119.116C47.316 119.116 47.7407 118.999 48.0787 118.765C48.4253 118.522 48.668 118.202 48.8067 117.803H50.0807C49.89 118.488 49.5087 119.047 48.9367 119.48C48.3647 119.905 47.654 120.117 46.8047 120.117C46.1287 120.117 45.522 119.965 44.9847 119.662C44.456 119.359 44.04 118.93 43.7367 118.375C43.4333 117.812 43.2817 117.162 43.2817 116.425C43.2817 115.688 43.429 115.043 43.7237 114.488C44.0183 113.933 44.43 113.509 44.9587 113.214C45.496 112.911 46.1113 112.759 46.8047 112.759C47.4807 112.759 48.0787 112.906 48.5987 113.201C49.1187 113.496 49.5173 113.903 49.7947 114.423C50.0807 114.934 50.2237 115.515 50.2237 116.165ZM49.0017 115.918C49.0017 115.467 48.902 115.082 48.7027 114.761C48.5033 114.432 48.2303 114.185 47.8837 114.02C47.5457 113.847 47.1687 113.76 46.7527 113.76C46.1547 113.76 45.6433 113.951 45.2187 114.332C44.8027 114.713 44.5643 115.242 44.5037 115.918H49.0017ZM52.9682 110.38V120H51.7852V110.38H52.9682ZM58.5204 112.746C59.0577 112.746 59.5431 112.863 59.9764 113.097C60.4097 113.322 60.7477 113.665 60.9904 114.124C61.2417 114.583 61.3674 115.142 61.3674 115.801V120H60.1974V115.97C60.1974 115.259 60.0197 114.718 59.6644 114.345C59.3091 113.964 58.8237 113.773 58.2084 113.773C57.5844 113.773 57.0861 113.968 56.7134 114.358C56.3494 114.748 56.1674 115.316 56.1674 116.061V120H54.9844V110.38H56.1674V113.89C56.4014 113.526 56.7221 113.244 57.1294 113.045C57.5454 112.846 58.0091 112.746 58.5204 112.746ZM63.9108 111.719C63.6855 111.719 63.4948 111.641 63.3388 111.485C63.1828 111.329 63.1048 111.138 63.1048 110.913C63.1048 110.688 63.1828 110.497 63.3388 110.341C63.4948 110.185 63.6855 110.107 63.9108 110.107C64.1275 110.107 64.3095 110.185 64.4568 110.341C64.6128 110.497 64.6908 110.688 64.6908 110.913C64.6908 111.138 64.6128 111.329 64.4568 111.485C64.3095 111.641 64.1275 111.719 63.9108 111.719ZM64.4828 112.876V120H63.2998V112.876H64.4828ZM69.151 118.908L71.361 112.876H72.622L69.827 120H68.449L65.654 112.876H66.928L69.151 118.908ZM80.2862 116.165C80.2862 116.39 80.2732 116.629 80.2472 116.88H74.5532C74.5965 117.582 74.8348 118.132 75.2682 118.531C75.7102 118.921 76.2432 119.116 76.8672 119.116C77.3785 119.116 77.8032 118.999 78.1412 118.765C78.4878 118.522 78.7305 118.202 78.8692 117.803H80.1432C79.9525 118.488 79.5712 119.047 78.9992 119.48C78.4272 119.905 77.7165 120.117 76.8672 120.117C76.1912 120.117 75.5845 119.965 75.0472 119.662C74.5185 119.359 74.1025 118.93 73.7992 118.375C73.4958 117.812 73.3442 117.162 73.3442 116.425C73.3442 115.688 73.4915 115.043 73.7862 114.488C74.0808 113.933 74.4925 113.509 75.0212 113.214C75.5585 112.911 76.1738 112.759 76.8672 112.759C77.5432 112.759 78.1412 112.906 78.6612 113.201C79.1812 113.496 79.5798 113.903 79.8572 114.423C80.1432 114.934 80.2862 115.515 80.2862 116.165ZM79.0642 115.918C79.0642 115.467 78.9645 115.082 78.7652 114.761C78.5658 114.432 78.2928 114.185 77.9462 114.02C77.6082 113.847 77.2312 113.76 76.8152 113.76C76.2172 113.76 75.7058 113.951 75.2812 114.332C74.8652 114.713 74.6268 115.242 74.5662 115.918H79.0642ZM83.0307 114.033C83.2387 113.626 83.5333 113.309 83.9147 113.084C84.3047 112.859 84.777 112.746 85.3317 112.746V113.968H85.0197C83.6937 113.968 83.0307 114.687 83.0307 116.126V120H81.8477V112.876H83.0307V114.033ZM92.8333 112.876L88.5433 123.354H87.3213L88.7253 119.922L85.8523 112.876H87.1653L89.4013 118.648L91.6113 112.876H92.8333Z" fill="#649BC5"/>
<g filter="url(#filter1_d_807_592)">
<rect x="163.58" width="95.8125" height="25" rx="9" fill="white"/>
</g>
<path d="M196.763 9.901V12.93H200.065V13.905H196.763V17.025H200.455V18H195.58V8.926H200.455V9.901H196.763ZM207.159 18L203.428 13.866V18H202.245V8.939H203.428V13.138L207.172 8.939H208.667L204.559 13.476L208.706 18H207.159ZM209.585 14.412C209.585 13.684 209.732 13.047 210.027 12.501C210.322 11.9463 210.725 11.5173 211.236 11.214C211.756 10.9107 212.332 10.759 212.965 10.759C213.589 10.759 214.131 10.8933 214.59 11.162C215.049 11.4307 215.392 11.7687 215.617 12.176V10.876H216.813V18H215.617V16.674C215.383 17.09 215.032 17.4367 214.564 17.714C214.105 17.9827 213.567 18.117 212.952 18.117C212.319 18.117 211.747 17.961 211.236 17.649C210.725 17.337 210.322 16.8993 210.027 16.336C209.732 15.7727 209.585 15.1313 209.585 14.412ZM215.617 14.425C215.617 13.8877 215.509 13.4197 215.292 13.021C215.075 12.6223 214.781 12.319 214.408 12.111C214.044 11.8943 213.641 11.786 213.199 11.786C212.757 11.786 212.354 11.89 211.99 12.098C211.626 12.306 211.336 12.6093 211.119 13.008C210.902 13.4067 210.794 13.8747 210.794 14.412C210.794 14.958 210.902 15.4347 211.119 15.842C211.336 16.2407 211.626 16.5483 211.99 16.765C212.354 16.973 212.757 17.077 213.199 17.077C213.641 17.077 214.044 16.973 214.408 16.765C214.781 16.5483 215.075 16.2407 215.292 15.842C215.509 15.4347 215.617 14.9623 215.617 14.425ZM219.995 12.033C220.203 11.6257 220.498 11.3093 220.879 11.084C221.269 10.8587 221.741 10.746 222.296 10.746V11.968H221.984C220.658 11.968 219.995 12.6873 219.995 14.126V18H218.812V10.876H219.995V12.033ZM225.105 11.851V16.05C225.105 16.3967 225.178 16.6437 225.326 16.791C225.473 16.9297 225.729 16.999 226.093 16.999H226.964V18H225.898C225.239 18 224.745 17.8483 224.416 17.545C224.086 17.2417 223.922 16.7433 223.922 16.05V11.851H222.999V10.876H223.922V9.082H225.105V10.876H226.964V11.851H225.105Z" fill="#649BC5"/>
<g filter="url(#filter2_d_807_592)">
<rect x="170.566" y="69" width="95.8125" height="25" rx="9" fill="white"/>
</g>
<path d="M204.067 77.939C205.055 77.939 205.908 78.1253 206.628 78.498C207.356 78.862 207.91 79.3863 208.292 80.071C208.682 80.7557 208.877 81.5617 208.877 82.489C208.877 83.4163 208.682 84.2223 208.292 84.907C207.91 85.583 207.356 86.103 206.628 86.467C205.908 86.8223 205.055 87 204.067 87H201.246V77.939H204.067ZM204.067 86.025C205.237 86.025 206.129 85.7173 206.745 85.102C207.36 84.478 207.668 83.607 207.668 82.489C207.668 81.3623 207.356 80.4827 206.732 79.85C206.116 79.2173 205.228 78.901 204.067 78.901H202.429V86.025H204.067ZM216.014 77.939V78.901H213.544V87H212.361V78.901H209.878V77.939H216.014ZM220.291 77.939C221.279 77.939 222.133 78.1253 222.852 78.498C223.58 78.862 224.135 79.3863 224.516 80.071C224.906 80.7557 225.101 81.5617 225.101 82.489C225.101 83.4163 224.906 84.2223 224.516 84.907C224.135 85.583 223.58 86.103 222.852 86.467C222.133 86.8223 221.279 87 220.291 87H217.47V77.939H220.291ZM220.291 86.025C221.461 86.025 222.354 85.7173 222.969 85.102C223.585 84.478 223.892 83.607 223.892 82.489C223.892 81.3623 223.58 80.4827 222.956 79.85C222.341 79.2173 221.453 78.901 220.291 78.901H218.653V86.025H220.291ZM226.22 82.463C226.22 81.579 226.419 80.786 226.818 80.084C227.216 79.3733 227.758 78.8187 228.443 78.42C229.136 78.0213 229.903 77.822 230.744 77.822C231.732 77.822 232.594 78.0603 233.331 78.537C234.067 79.0137 234.605 79.6897 234.943 80.565H233.526C233.274 80.019 232.91 79.5987 232.434 79.304C231.966 79.0093 231.402 78.862 230.744 78.862C230.111 78.862 229.543 79.0093 229.041 79.304C228.538 79.5987 228.144 80.019 227.858 80.565C227.572 81.1023 227.429 81.735 227.429 82.463C227.429 83.1823 227.572 83.815 227.858 84.361C228.144 84.8983 228.538 85.3143 229.041 85.609C229.543 85.9037 230.111 86.051 230.744 86.051C231.402 86.051 231.966 85.908 232.434 85.622C232.91 85.3273 233.274 84.907 233.526 84.361H234.943C234.605 85.2277 234.067 85.8993 233.331 86.376C232.594 86.844 231.732 87.078 230.744 87.078C229.903 87.078 229.136 86.883 228.443 86.493C227.758 86.0943 227.216 85.544 226.818 84.842C226.419 84.14 226.22 83.347 226.22 82.463Z" fill="#649BC5"/>
<g filter="url(#filter3_d_807_592)">
<rect x="230.449" y="174" width="98.8066" height="25" rx="9" fill="white"/>
</g>
<path d="M248.565 187.476L251.347 192H250.008L247.837 188.464L245.77 192H244.457L247.226 187.476L244.444 182.939H245.77L247.954 186.488L250.034 182.939H251.36L248.565 187.476ZM258.992 185.591C258.992 186.345 258.732 186.973 258.212 187.476C257.701 187.97 256.916 188.217 255.859 188.217H254.117V192H252.934V182.939H255.859C256.882 182.939 257.657 183.186 258.186 183.68C258.723 184.174 258.992 184.811 258.992 185.591ZM255.859 187.242C256.518 187.242 257.003 187.099 257.315 186.813C257.627 186.527 257.783 186.12 257.783 185.591C257.783 184.473 257.142 183.914 255.859 183.914H254.117V187.242H255.859ZM261.645 186.033C261.853 185.626 262.148 185.309 262.529 185.084C262.919 184.859 263.392 184.746 263.946 184.746V185.968H263.634C262.308 185.968 261.645 186.687 261.645 188.126V192H260.462V184.876H261.645V186.033ZM271.812 188.165C271.812 188.39 271.799 188.629 271.773 188.88H266.079C266.122 189.582 266.361 190.132 266.794 190.531C267.236 190.921 267.769 191.116 268.393 191.116C268.904 191.116 269.329 190.999 269.667 190.765C270.014 190.522 270.256 190.202 270.395 189.803H271.669C271.478 190.488 271.097 191.047 270.525 191.48C269.953 191.905 269.242 192.117 268.393 192.117C267.717 192.117 267.11 191.965 266.573 191.662C266.044 191.359 265.628 190.93 265.325 190.375C265.022 189.812 264.87 189.162 264.87 188.425C264.87 187.688 265.017 187.043 265.312 186.488C265.607 185.933 266.018 185.509 266.547 185.214C267.084 184.911 267.7 184.759 268.393 184.759C269.069 184.759 269.667 184.906 270.187 185.201C270.707 185.496 271.106 185.903 271.383 186.423C271.669 186.934 271.812 187.515 271.812 188.165ZM270.59 187.918C270.59 187.467 270.49 187.082 270.291 186.761C270.092 186.432 269.819 186.185 269.472 186.02C269.134 185.847 268.757 185.76 268.341 185.76C267.743 185.76 267.232 185.951 266.807 186.332C266.391 186.713 266.153 187.242 266.092 187.918H270.59ZM275.896 192.117C275.35 192.117 274.86 192.026 274.427 191.844C273.993 191.653 273.651 191.393 273.4 191.064C273.148 190.726 273.01 190.34 272.984 189.907H274.206C274.24 190.262 274.405 190.553 274.7 190.778C275.003 191.003 275.397 191.116 275.883 191.116C276.333 191.116 276.689 191.016 276.949 190.817C277.209 190.618 277.339 190.366 277.339 190.063C277.339 189.751 277.2 189.521 276.923 189.374C276.645 189.218 276.216 189.066 275.636 188.919C275.107 188.78 274.674 188.642 274.336 188.503C274.006 188.356 273.72 188.143 273.478 187.866C273.244 187.58 273.127 187.207 273.127 186.748C273.127 186.384 273.235 186.05 273.452 185.747C273.668 185.444 273.976 185.205 274.375 185.032C274.773 184.85 275.228 184.759 275.74 184.759C276.528 184.759 277.165 184.958 277.651 185.357C278.136 185.756 278.396 186.302 278.431 186.995H277.248C277.222 186.622 277.07 186.323 276.793 186.098C276.524 185.873 276.16 185.76 275.701 185.76C275.276 185.76 274.938 185.851 274.687 186.033C274.435 186.215 274.31 186.453 274.31 186.748C274.31 186.982 274.383 187.177 274.531 187.333C274.687 187.48 274.877 187.602 275.103 187.697C275.337 187.784 275.657 187.883 276.065 187.996C276.576 188.135 276.992 188.273 277.313 188.412C277.633 188.542 277.906 188.741 278.132 189.01C278.366 189.279 278.487 189.63 278.496 190.063C278.496 190.453 278.387 190.804 278.171 191.116C277.954 191.428 277.646 191.675 277.248 191.857C276.858 192.03 276.407 192.117 275.896 192.117ZM282.688 192.117C282.142 192.117 281.652 192.026 281.219 191.844C280.785 191.653 280.443 191.393 280.192 191.064C279.94 190.726 279.802 190.34 279.776 189.907H280.998C281.032 190.262 281.197 190.553 281.492 190.778C281.795 191.003 282.189 191.116 282.675 191.116C283.125 191.116 283.481 191.016 283.741 190.817C284.001 190.618 284.131 190.366 284.131 190.063C284.131 189.751 283.992 189.521 283.715 189.374C283.437 189.218 283.008 189.066 282.428 188.919C281.899 188.78 281.466 188.642 281.128 188.503C280.798 188.356 280.512 188.143 280.27 187.866C280.036 187.58 279.919 187.207 279.919 186.748C279.919 186.384 280.027 186.05 280.244 185.747C280.46 185.444 280.768 185.205 281.167 185.032C281.565 184.85 282.02 184.759 282.532 184.759C283.32 184.759 283.957 184.958 284.443 185.357C284.928 185.756 285.188 186.302 285.223 186.995H284.04C284.014 186.622 283.862 186.323 283.585 186.098C283.316 185.873 282.952 185.76 282.493 185.76C282.068 185.76 281.73 185.851 281.479 186.033C281.227 186.215 281.102 186.453 281.102 186.748C281.102 186.982 281.175 187.177 281.323 187.333C281.479 187.48 281.669 187.602 281.895 187.697C282.129 187.784 282.449 187.883 282.857 187.996C283.368 188.135 283.784 188.273 284.105 188.412C284.425 188.542 284.698 188.741 284.924 189.01C285.158 189.279 285.279 189.63 285.288 190.063C285.288 190.453 285.179 190.804 284.963 191.116C284.746 191.428 284.438 191.675 284.04 191.857C283.65 192.03 283.199 192.117 282.688 192.117ZM291.495 187.333C291.824 187.385 292.123 187.519 292.392 187.736C292.669 187.953 292.886 188.221 293.042 188.542C293.206 188.863 293.289 189.205 293.289 189.569C293.289 190.028 293.172 190.444 292.938 190.817C292.704 191.181 292.361 191.471 291.911 191.688C291.469 191.896 290.944 192 290.338 192H286.958V182.939H290.208C290.823 182.939 291.347 183.043 291.781 183.251C292.214 183.45 292.539 183.723 292.756 184.07C292.972 184.417 293.081 184.807 293.081 185.24C293.081 185.777 292.933 186.224 292.639 186.579C292.353 186.926 291.971 187.177 291.495 187.333ZM288.141 186.852H290.13C290.684 186.852 291.113 186.722 291.417 186.462C291.72 186.202 291.872 185.842 291.872 185.383C291.872 184.924 291.72 184.564 291.417 184.304C291.113 184.044 290.676 183.914 290.104 183.914H288.141V186.852ZM290.234 191.025C290.823 191.025 291.282 190.886 291.612 190.609C291.941 190.332 292.106 189.946 292.106 189.452C292.106 188.949 291.932 188.555 291.586 188.269C291.239 187.974 290.775 187.827 290.195 187.827H288.141V191.025H290.234ZM301.43 188.165C301.43 188.39 301.417 188.629 301.391 188.88H295.697C295.741 189.582 295.979 190.132 296.412 190.531C296.854 190.921 297.387 191.116 298.011 191.116C298.523 191.116 298.947 190.999 299.285 190.765C299.632 190.522 299.875 190.202 300.013 189.803H301.287C301.097 190.488 300.715 191.047 300.143 191.48C299.571 191.905 298.861 192.117 298.011 192.117C297.335 192.117 296.729 191.965 296.191 191.662C295.663 191.359 295.247 190.93 294.943 190.375C294.64 189.812 294.488 189.162 294.488 188.425C294.488 187.688 294.636 187.043 294.93 186.488C295.225 185.933 295.637 185.509 296.165 185.214C296.703 184.911 297.318 184.759 298.011 184.759C298.687 184.759 299.285 184.906 299.805 185.201C300.325 185.496 300.724 185.903 301.001 186.423C301.287 186.934 301.43 187.515 301.43 188.165ZM300.208 187.918C300.208 187.467 300.109 187.082 299.909 186.761C299.71 186.432 299.437 186.185 299.09 186.02C298.752 185.847 298.375 185.76 297.959 185.76C297.361 185.76 296.85 185.951 296.425 186.332C296.009 186.713 295.771 187.242 295.71 187.918H300.208ZM309.492 188.165C309.492 188.39 309.479 188.629 309.453 188.88H303.759C303.802 189.582 304.04 190.132 304.474 190.531C304.916 190.921 305.449 191.116 306.073 191.116C306.584 191.116 307.009 190.999 307.347 190.765C307.693 190.522 307.936 190.202 308.075 189.803H309.349C309.158 190.488 308.777 191.047 308.205 191.48C307.633 191.905 306.922 192.117 306.073 192.117C305.397 192.117 304.79 191.965 304.253 191.662C303.724 191.359 303.308 190.93 303.005 190.375C302.701 189.812 302.55 189.162 302.55 188.425C302.55 187.688 302.697 187.043 302.992 186.488C303.286 185.933 303.698 185.509 304.227 185.214C304.764 184.911 305.379 184.759 306.073 184.759C306.749 184.759 307.347 184.906 307.867 185.201C308.387 185.496 308.785 185.903 309.063 186.423C309.349 186.934 309.492 187.515 309.492 188.165ZM308.27 187.918C308.27 187.467 308.17 187.082 307.971 186.761C307.771 186.432 307.498 186.185 307.152 186.02C306.814 185.847 306.437 185.76 306.021 185.76C305.423 185.76 304.911 185.951 304.487 186.332C304.071 186.713 303.832 187.242 303.772 187.918H308.27ZM313.575 192.117C313.029 192.117 312.54 192.026 312.106 191.844C311.673 191.653 311.331 191.393 311.079 191.064C310.828 190.726 310.689 190.34 310.663 189.907H311.885C311.92 190.262 312.085 190.553 312.379 190.778C312.683 191.003 313.077 191.116 313.562 191.116C314.013 191.116 314.368 191.016 314.628 190.817C314.888 190.618 315.018 190.366 315.018 190.063C315.018 189.751 314.88 189.521 314.602 189.374C314.325 189.218 313.896 189.066 313.315 188.919C312.787 188.78 312.353 188.642 312.015 188.503C311.686 188.356 311.4 188.143 311.157 187.866C310.923 187.58 310.806 187.207 310.806 186.748C310.806 186.384 310.915 186.05 311.131 185.747C311.348 185.444 311.656 185.205 312.054 185.032C312.453 184.85 312.908 184.759 313.419 184.759C314.208 184.759 314.845 184.958 315.33 185.357C315.816 185.756 316.076 186.302 316.11 186.995H314.927C314.901 186.622 314.75 186.323 314.472 186.098C314.204 185.873 313.84 185.76 313.38 185.76C312.956 185.76 312.618 185.851 312.366 186.033C312.115 186.215 311.989 186.453 311.989 186.748C311.989 186.982 312.063 187.177 312.21 187.333C312.366 187.48 312.557 187.602 312.782 187.697C313.016 187.784 313.337 187.883 313.744 187.996C314.256 188.135 314.672 188.273 314.992 188.412C315.313 188.542 315.586 188.741 315.811 189.01C316.045 189.279 316.167 189.63 316.175 190.063C316.175 190.453 316.067 190.804 315.85 191.116C315.634 191.428 315.326 191.675 314.927 191.857C314.537 192.03 314.087 192.117 313.575 192.117Z" fill="#649BC5"/>
<g filter="url(#filter4_d_807_592)">
<rect x="4.89062" y="209" width="112.779" height="25" rx="9" fill="white"/>
</g>
<path d="M19.5131 218.901V221.93H22.8151V222.905H19.5131V226.025H23.2051V227H18.3301V217.926H23.2051V218.901H19.5131ZM24.5531 223.425C24.5531 222.688 24.7005 222.047 24.9951 221.501C25.2898 220.946 25.6971 220.517 26.2171 220.214C26.7458 219.911 27.3481 219.759 28.0241 219.759C28.8995 219.759 29.6188 219.971 30.1821 220.396C30.7541 220.821 31.1311 221.41 31.3131 222.164H30.0391C29.9178 221.731 29.6795 221.388 29.3241 221.137C28.9775 220.886 28.5441 220.76 28.0241 220.76C27.3481 220.76 26.8021 220.994 26.3861 221.462C25.9701 221.921 25.7621 222.576 25.7621 223.425C25.7621 224.283 25.9701 224.946 26.3861 225.414C26.8021 225.882 27.3481 226.116 28.0241 226.116C28.5441 226.116 28.9775 225.995 29.3241 225.752C29.6708 225.509 29.9091 225.163 30.0391 224.712H31.3131C31.1225 225.44 30.7411 226.025 30.1691 226.467C29.5971 226.9 28.8821 227.117 28.0241 227.117C27.3481 227.117 26.7458 226.965 26.2171 226.662C25.6971 226.359 25.2898 225.93 24.9951 225.375C24.7005 224.82 24.5531 224.17 24.5531 223.425ZM35.9986 227.117C35.3313 227.117 34.7246 226.965 34.1786 226.662C33.6413 226.359 33.2166 225.93 32.9046 225.375C32.6013 224.812 32.4496 224.162 32.4496 223.425C32.4496 222.697 32.6056 222.056 32.9176 221.501C33.2383 220.938 33.6716 220.509 34.2176 220.214C34.7636 219.911 35.3746 219.759 36.0506 219.759C36.7266 219.759 37.3376 219.911 37.8836 220.214C38.4296 220.509 38.8586 220.933 39.1706 221.488C39.4913 222.043 39.6516 222.688 39.6516 223.425C39.6516 224.162 39.487 224.812 39.1576 225.375C38.837 225.93 38.3993 226.359 37.8446 226.662C37.29 226.965 36.6746 227.117 35.9986 227.117ZM35.9986 226.077C36.4233 226.077 36.822 225.977 37.1946 225.778C37.5673 225.579 37.8663 225.28 38.0916 224.881C38.3256 224.482 38.4426 223.997 38.4426 223.425C38.4426 222.853 38.33 222.368 38.1046 221.969C37.8793 221.57 37.5846 221.276 37.2206 221.085C36.8566 220.886 36.4623 220.786 36.0376 220.786C35.6043 220.786 35.2056 220.886 34.8416 221.085C34.4863 221.276 34.2003 221.57 33.9836 221.969C33.767 222.368 33.6586 222.853 33.6586 223.425C33.6586 224.006 33.7626 224.495 33.9706 224.894C34.1873 225.293 34.4733 225.592 34.8286 225.791C35.184 225.982 35.574 226.077 35.9986 226.077ZM49.7741 219.746C50.3287 219.746 50.8227 219.863 51.2561 220.097C51.6894 220.322 52.0317 220.665 52.2831 221.124C52.5344 221.583 52.6601 222.142 52.6601 222.801V227H51.4901V222.97C51.4901 222.259 51.3124 221.718 50.9571 221.345C50.6104 220.964 50.1381 220.773 49.5401 220.773C48.9247 220.773 48.4351 220.972 48.0711 221.371C47.7071 221.761 47.5251 222.329 47.5251 223.074V227H46.3551V222.97C46.3551 222.259 46.1774 221.718 45.8221 221.345C45.4754 220.964 45.0031 220.773 44.4051 220.773C43.7897 220.773 43.3001 220.972 42.9361 221.371C42.5721 221.761 42.3901 222.329 42.3901 223.074V227H41.2071V219.876H42.3901V220.903C42.6241 220.53 42.9361 220.244 43.3261 220.045C43.7247 219.846 44.1624 219.746 44.6391 219.746C45.2371 219.746 45.7657 219.88 46.2251 220.149C46.6844 220.418 47.0267 220.812 47.2521 221.332C47.4514 220.829 47.7807 220.439 48.2401 220.162C48.6994 219.885 49.2107 219.746 49.7741 219.746ZM59.2494 218.901V221.93H62.5514V222.905H59.2494V226.025H62.9414V227H58.0664V217.926H62.9414V218.901H59.2494ZM68.4495 227L66.7595 224.348L65.1345 227H63.8995L66.2005 223.464L63.8995 219.876H65.2385L66.9285 222.515L68.5405 219.876H69.7755L67.4875 223.399L69.7885 227H68.4495ZM72.1352 221.189C72.3692 220.782 72.7158 220.444 73.1752 220.175C73.6432 219.898 74.1848 219.759 74.8002 219.759C75.4328 219.759 76.0048 219.911 76.5162 220.214C77.0362 220.517 77.4435 220.946 77.7382 221.501C78.0328 222.047 78.1802 222.684 78.1802 223.412C78.1802 224.131 78.0328 224.773 77.7382 225.336C77.4435 225.899 77.0362 226.337 76.5162 226.649C76.0048 226.961 75.4328 227.117 74.8002 227.117C74.1935 227.117 73.6562 226.983 73.1882 226.714C72.7288 226.437 72.3778 226.094 72.1352 225.687V230.38H70.9522V219.876H72.1352V221.189ZM76.9712 223.412C76.9712 222.875 76.8628 222.407 76.6462 222.008C76.4295 221.609 76.1348 221.306 75.7622 221.098C75.3982 220.89 74.9952 220.786 74.5532 220.786C74.1198 220.786 73.7168 220.894 73.3442 221.111C72.9802 221.319 72.6855 221.627 72.4602 222.034C72.2435 222.433 72.1352 222.896 72.1352 223.425C72.1352 223.962 72.2435 224.435 72.4602 224.842C72.6855 225.241 72.9802 225.548 73.3442 225.765C73.7168 225.973 74.1198 226.077 74.5532 226.077C74.9952 226.077 75.3982 225.973 75.7622 225.765C76.1348 225.548 76.4295 225.241 76.6462 224.842C76.8628 224.435 76.9712 223.958 76.9712 223.412ZM80.9203 221.033C81.1283 220.626 81.423 220.309 81.8043 220.084C82.1943 219.859 82.6667 219.746 83.2213 219.746V220.968H82.9093C81.5833 220.968 80.9203 221.687 80.9203 223.126V227H79.7373V219.876H80.9203V221.033ZM91.0869 223.165C91.0869 223.39 91.0739 223.629 91.0479 223.88H85.3539C85.3973 224.582 85.6356 225.132 86.0689 225.531C86.5109 225.921 87.0439 226.116 87.6679 226.116C88.1793 226.116 88.6039 225.999 88.9419 225.765C89.2886 225.522 89.5313 225.202 89.6699 224.803H90.9439C90.7533 225.488 90.3719 226.047 89.7999 226.48C89.2279 226.905 88.5173 227.117 87.6679 227.117C86.9919 227.117 86.3853 226.965 85.8479 226.662C85.3193 226.359 84.9033 225.93 84.5999 225.375C84.2966 224.812 84.1449 224.162 84.1449 223.425C84.1449 222.688 84.2923 222.043 84.5869 221.488C84.8816 220.933 85.2933 220.509 85.8219 220.214C86.3593 219.911 86.9746 219.759 87.6679 219.759C88.3439 219.759 88.9419 219.906 89.4619 220.201C89.9819 220.496 90.3806 220.903 90.6579 221.423C90.9439 221.934 91.0869 222.515 91.0869 223.165ZM89.8649 222.918C89.8649 222.467 89.7653 222.082 89.5659 221.761C89.3666 221.432 89.0936 221.185 88.7469 221.02C88.4089 220.847 88.0319 220.76 87.6159 220.76C87.0179 220.76 86.5066 220.951 86.0819 221.332C85.6659 221.713 85.4276 222.242 85.3669 222.918H89.8649ZM95.1705 227.117C94.6245 227.117 94.1348 227.026 93.7015 226.844C93.2681 226.653 92.9258 226.393 92.6745 226.064C92.4231 225.726 92.2845 225.34 92.2585 224.907H93.4805C93.5151 225.262 93.6798 225.553 93.9745 225.778C94.2778 226.003 94.6721 226.116 95.1575 226.116C95.6081 226.116 95.9635 226.016 96.2235 225.817C96.4835 225.618 96.6135 225.366 96.6135 225.063C96.6135 224.751 96.4748 224.521 96.1975 224.374C95.9201 224.218 95.4911 224.066 94.9105 223.919C94.3818 223.78 93.9485 223.642 93.6105 223.503C93.2811 223.356 92.9951 223.143 92.7525 222.866C92.5185 222.58 92.4015 222.207 92.4015 221.748C92.4015 221.384 92.5098 221.05 92.7265 220.747C92.9431 220.444 93.2508 220.205 93.6495 220.032C94.0481 219.85 94.5031 219.759 95.0145 219.759C95.8031 219.759 96.4401 219.958 96.9255 220.357C97.4108 220.756 97.6708 221.302 97.7055 221.995H96.5225C96.4965 221.622 96.3448 221.323 96.0675 221.098C95.7988 220.873 95.4348 220.76 94.9755 220.76C94.5508 220.76 94.2128 220.851 93.9615 221.033C93.7101 221.215 93.5845 221.453 93.5845 221.748C93.5845 221.982 93.6581 222.177 93.8055 222.333C93.9615 222.48 94.1521 222.602 94.3775 222.697C94.6115 222.784 94.9321 222.883 95.3395 222.996C95.8508 223.135 96.2668 223.273 96.5875 223.412C96.9081 223.542 97.1811 223.741 97.4065 224.01C97.6405 224.279 97.7618 224.63 97.7705 225.063C97.7705 225.453 97.6621 225.804 97.4455 226.116C97.2288 226.428 96.9211 226.675 96.5225 226.857C96.1325 227.03 95.6818 227.117 95.1705 227.117ZM101.962 227.117C101.416 227.117 100.927 227.026 100.493 226.844C100.06 226.653 99.7178 226.393 99.4665 226.064C99.2151 225.726 99.0765 225.34 99.0505 224.907H100.272C100.307 225.262 100.472 225.553 100.766 225.778C101.07 226.003 101.464 226.116 101.949 226.116C102.4 226.116 102.755 226.016 103.015 225.817C103.275 225.618 103.405 225.366 103.405 225.063C103.405 224.751 103.267 224.521 102.989 224.374C102.712 224.218 102.283 224.066 101.702 223.919C101.174 223.78 100.74 223.642 100.402 223.503C100.073 223.356 99.7871 223.143 99.5445 222.866C99.3105 222.58 99.1935 222.207 99.1935 221.748C99.1935 221.384 99.3018 221.05 99.5185 220.747C99.7351 220.444 100.043 220.205 100.441 220.032C100.84 219.85 101.295 219.759 101.806 219.759C102.595 219.759 103.232 219.958 103.717 220.357C104.203 220.756 104.463 221.302 104.497 221.995H103.314C103.288 221.622 103.137 221.323 102.859 221.098C102.591 220.873 102.227 220.76 101.767 220.76C101.343 220.76 101.005 220.851 100.753 221.033C100.502 221.215 100.376 221.453 100.376 221.748C100.376 221.982 100.45 222.177 100.597 222.333C100.753 222.48 100.944 222.602 101.169 222.697C101.403 222.784 101.724 222.883 102.131 222.996C102.643 223.135 103.059 223.273 103.379 223.412C103.7 223.542 103.973 223.741 104.198 224.01C104.432 224.279 104.554 224.63 104.562 225.063C104.562 225.453 104.454 225.804 104.237 226.116C104.021 226.428 103.713 226.675 103.314 226.857C102.924 227.03 102.474 227.117 101.962 227.117Z" fill="#649BC5"/>
<g filter="url(#filter5_d_807_592)">
<rect x="168.57" y="231" width="98.8066" height="25" rx="9" fill="white"/>
</g>
<path d="M194.056 246.985H190.104L189.376 249H188.128L191.404 239.991H192.769L196.032 249H194.784L194.056 246.985ZM193.718 246.023L192.08 241.447L190.442 246.023H193.718ZM206.027 241.746C206.582 241.746 207.076 241.863 207.509 242.097C207.942 242.322 208.285 242.665 208.536 243.124C208.787 243.583 208.913 244.142 208.913 244.801V249H207.743V244.97C207.743 244.259 207.565 243.718 207.21 243.345C206.863 242.964 206.391 242.773 205.793 242.773C205.178 242.773 204.688 242.972 204.324 243.371C203.96 243.761 203.778 244.329 203.778 245.074V249H202.608V244.97C202.608 244.259 202.43 243.718 202.075 243.345C201.728 242.964 201.256 242.773 200.658 242.773C200.043 242.773 199.553 242.972 199.189 243.371C198.825 243.761 198.643 244.329 198.643 245.074V249H197.46V241.876H198.643V242.903C198.877 242.53 199.189 242.244 199.579 242.045C199.978 241.846 200.415 241.746 200.892 241.746C201.49 241.746 202.019 241.88 202.478 242.149C202.937 242.418 203.28 242.812 203.505 243.332C203.704 242.829 204.034 242.439 204.493 242.162C204.952 241.885 205.464 241.746 206.027 241.746ZM210.412 245.412C210.412 244.684 210.559 244.047 210.854 243.501C211.148 242.946 211.551 242.517 212.063 242.214C212.583 241.911 213.159 241.759 213.792 241.759C214.416 241.759 214.957 241.893 215.417 242.162C215.876 242.431 216.218 242.769 216.444 243.176V241.876H217.64V249H216.444V247.674C216.21 248.09 215.859 248.437 215.391 248.714C214.931 248.983 214.394 249.117 213.779 249.117C213.146 249.117 212.574 248.961 212.063 248.649C211.551 248.337 211.148 247.899 210.854 247.336C210.559 246.773 210.412 246.131 210.412 245.412ZM216.444 245.425C216.444 244.888 216.335 244.42 216.119 244.021C215.902 243.622 215.607 243.319 215.235 243.111C214.871 242.894 214.468 242.786 214.026 242.786C213.584 242.786 213.181 242.89 212.817 243.098C212.453 243.306 212.162 243.609 211.946 244.008C211.729 244.407 211.621 244.875 211.621 245.412C211.621 245.958 211.729 246.435 211.946 246.842C212.162 247.241 212.453 247.548 212.817 247.765C213.181 247.973 213.584 248.077 214.026 248.077C214.468 248.077 214.871 247.973 215.235 247.765C215.607 247.548 215.902 247.241 216.119 246.842C216.335 246.435 216.444 245.962 216.444 245.425ZM220.523 248.025H224.02V249H219.171V248.025L222.629 242.838H219.197V241.876H223.994V242.838L220.523 248.025ZM228.662 249.117C227.994 249.117 227.388 248.965 226.842 248.662C226.304 248.359 225.88 247.93 225.568 247.375C225.264 246.812 225.113 246.162 225.113 245.425C225.113 244.697 225.269 244.056 225.581 243.501C225.901 242.938 226.335 242.509 226.881 242.214C227.427 241.911 228.038 241.759 228.714 241.759C229.39 241.759 230.001 241.911 230.547 242.214C231.093 242.509 231.522 242.933 231.834 243.488C232.154 244.043 232.315 244.688 232.315 245.425C232.315 246.162 232.15 246.812 231.821 247.375C231.5 247.93 231.062 248.359 230.508 248.662C229.953 248.965 229.338 249.117 228.662 249.117ZM228.662 248.077C229.086 248.077 229.485 247.977 229.858 247.778C230.23 247.579 230.529 247.28 230.755 246.881C230.989 246.482 231.106 245.997 231.106 245.425C231.106 244.853 230.993 244.368 230.768 243.969C230.542 243.57 230.248 243.276 229.884 243.085C229.52 242.886 229.125 242.786 228.701 242.786C228.267 242.786 227.869 242.886 227.505 243.085C227.149 243.276 226.863 243.57 226.647 243.969C226.43 244.368 226.322 244.853 226.322 245.425C226.322 246.006 226.426 246.495 226.634 246.894C226.85 247.293 227.136 247.592 227.492 247.791C227.847 247.982 228.237 248.077 228.662 248.077ZM237.341 241.746C238.208 241.746 238.91 242.01 239.447 242.539C239.984 243.059 240.253 243.813 240.253 244.801V249H239.083V244.97C239.083 244.259 238.905 243.718 238.55 243.345C238.195 242.964 237.709 242.773 237.094 242.773C236.47 242.773 235.972 242.968 235.599 243.358C235.235 243.748 235.053 244.316 235.053 245.061V249H233.87V241.876H235.053V242.89C235.287 242.526 235.603 242.244 236.002 242.045C236.409 241.846 236.856 241.746 237.341 241.746ZM248.686 245.165C248.686 245.39 248.673 245.629 248.647 245.88H242.953C242.996 246.582 243.234 247.132 243.668 247.531C244.11 247.921 244.643 248.116 245.267 248.116C245.778 248.116 246.203 247.999 246.541 247.765C246.887 247.522 247.13 247.202 247.269 246.803H248.543C248.352 247.488 247.971 248.047 247.399 248.48C246.827 248.905 246.116 249.117 245.267 249.117C244.591 249.117 243.984 248.965 243.447 248.662C242.918 248.359 242.502 247.93 242.199 247.375C241.895 246.812 241.744 246.162 241.744 245.425C241.744 244.688 241.891 244.043 242.186 243.488C242.48 242.933 242.892 242.509 243.421 242.214C243.958 241.911 244.573 241.759 245.267 241.759C245.943 241.759 246.541 241.906 247.061 242.201C247.581 242.496 247.979 242.903 248.257 243.423C248.543 243.934 248.686 244.515 248.686 245.165ZM247.464 244.918C247.464 244.467 247.364 244.082 247.165 243.761C246.965 243.432 246.692 243.185 246.346 243.02C246.008 242.847 245.631 242.76 245.215 242.76C244.617 242.76 244.105 242.951 243.681 243.332C243.265 243.713 243.026 244.242 242.966 244.918H247.464Z" fill="#649BC5"/>
<g filter="url(#filter6_d_807_592)">
<rect x="86.7305" y="302" width="98.8066" height="25" rx="9" fill="white"/>
</g>
<path d="M120.689 320L118.531 316.295H117.101V320H115.918V310.939H118.843C119.528 310.939 120.104 311.056 120.572 311.29C121.049 311.524 121.404 311.84 121.638 312.239C121.872 312.638 121.989 313.093 121.989 313.604C121.989 314.228 121.807 314.778 121.443 315.255C121.088 315.732 120.551 316.048 119.831 316.204L122.106 320H120.689ZM117.101 315.346H118.843C119.485 315.346 119.966 315.19 120.286 314.878C120.607 314.557 120.767 314.133 120.767 313.604C120.767 313.067 120.607 312.651 120.286 312.356C119.974 312.061 119.493 311.914 118.843 311.914H117.101V315.346ZM125.011 310.939V320H123.828V310.939H125.011ZM134.515 310.939L131.096 320H129.731L126.312 310.939H127.573L130.42 318.752L133.267 310.939H134.515ZM136.995 310.939V320H135.812V310.939H136.995ZM145.875 313.565C145.624 313.036 145.26 312.629 144.783 312.343C144.307 312.048 143.752 311.901 143.119 311.901C142.487 311.901 141.915 312.048 141.403 312.343C140.901 312.629 140.502 313.045 140.207 313.591C139.921 314.128 139.778 314.752 139.778 315.463C139.778 316.174 139.921 316.798 140.207 317.335C140.502 317.872 140.901 318.288 141.403 318.583C141.915 318.869 142.487 319.012 143.119 319.012C144.003 319.012 144.731 318.748 145.303 318.219C145.875 317.69 146.209 316.975 146.304 316.074H142.69V315.112H147.565V316.022C147.496 316.767 147.262 317.452 146.863 318.076C146.465 318.691 145.94 319.181 145.29 319.545C144.64 319.9 143.917 320.078 143.119 320.078C142.279 320.078 141.512 319.883 140.818 319.493C140.125 319.094 139.575 318.544 139.167 317.842C138.769 317.14 138.569 316.347 138.569 315.463C138.569 314.579 138.769 313.786 139.167 313.084C139.575 312.373 140.125 311.823 140.818 311.433C141.512 311.034 142.279 310.835 143.119 310.835C144.081 310.835 144.931 311.073 145.667 311.55C146.413 312.027 146.954 312.698 147.292 313.565H145.875ZM153.237 320.091C152.397 320.091 151.63 319.896 150.936 319.506C150.243 319.107 149.693 318.557 149.285 317.855C148.887 317.144 148.687 316.347 148.687 315.463C148.687 314.579 148.887 313.786 149.285 313.084C149.693 312.373 150.243 311.823 150.936 311.433C151.63 311.034 152.397 310.835 153.237 310.835C154.087 310.835 154.858 311.034 155.551 311.433C156.245 311.823 156.791 312.369 157.189 313.071C157.588 313.773 157.787 314.57 157.787 315.463C157.787 316.356 157.588 317.153 157.189 317.855C156.791 318.557 156.245 319.107 155.551 319.506C154.858 319.896 154.087 320.091 153.237 320.091ZM153.237 319.064C153.87 319.064 154.438 318.917 154.94 318.622C155.452 318.327 155.85 317.907 156.136 317.361C156.431 316.815 156.578 316.182 156.578 315.463C156.578 314.735 156.431 314.102 156.136 313.565C155.85 313.019 155.456 312.599 154.953 312.304C154.451 312.009 153.879 311.862 153.237 311.862C152.596 311.862 152.024 312.009 151.521 312.304C151.019 312.599 150.62 313.019 150.325 313.565C150.039 314.102 149.896 314.735 149.896 315.463C149.896 316.182 150.039 316.815 150.325 317.361C150.62 317.907 151.019 318.327 151.521 318.622C152.033 318.917 152.605 319.064 153.237 319.064Z" fill="#649BC5"/>
<defs>
<filter id="filter0_d_807_592" x="11.8691" y="102" width="103.812" height="33" filterUnits="userSpaceOnUse" color-interpolation-filters="sRGB">
<feFlood flood-opacity="0" result="BackgroundImageFix"/>
<feColorMatrix in="SourceAlpha" type="matrix" values="0 0 0 0 0 0 0 0 0 0 0 0 0 0 0 0 0 0 127 0" result="hardAlpha"/>
<feOffset dy="4"/>
<feGaussianBlur stdDeviation="2"/>
<feComposite in2="hardAlpha" operator="out"/>
<feColorMatrix type="matrix" values="0 0 0 0 0 0 0 0 0 0 0 0 0 0 0 0 0 0 0.25 0"/>
<feBlend mode="normal" in2="BackgroundImageFix" result="effect1_dropShadow_807_592"/>
<feBlend mode="normal" in="SourceGraphic" in2="effect1_dropShadow_807_592" result="shape"/>
</filter>
<filter id="filter1_d_807_592" x="159.58" y="0" width="103.812" height="33" filterUnits="userSpaceOnUse" color-interpolation-filters="sRGB">
<feFlood flood-opacity="0" result="BackgroundImageFix"/>
<feColorMatrix in="SourceAlpha" type="matrix" values="0 0 0 0 0 0 0 0 0 0 0 0 0 0 0 0 0 0 127 0" result="hardAlpha"/>
<feOffset dy="4"/>
<feGaussianBlur stdDeviation="2"/>
<feComposite in2="hardAlpha" operator="out"/>
<feColorMatrix type="matrix" values="0 0 0 0 0 0 0 0 0 0 0 0 0 0 0 0 0 0 0.25 0"/>
<feBlend mode="normal" in2="BackgroundImageFix" result="effect1_dropShadow_807_592"/>
<feBlend mode="normal" in="SourceGraphic" in2="effect1_dropShadow_807_592" result="shape"/>
</filter>
<filter id="filter2_d_807_592" x="166.566" y="69" width="103.812" height="33" filterUnits="userSpaceOnUse" color-interpolation-filters="sRGB">
<feFlood flood-opacity="0" result="BackgroundImageFix"/>
<feColorMatrix in="SourceAlpha" type="matrix" values="0 0 0 0 0 0 0 0 0 0 0 0 0 0 0 0 0 0 127 0" result="hardAlpha"/>
<feOffset dy="4"/>
<feGaussianBlur stdDeviation="2"/>
<feComposite in2="hardAlpha" operator="out"/>
<feColorMatrix type="matrix" values="0 0 0 0 0 0 0 0 0 0 0 0 0 0 0 0 0 0 0.25 0"/>
<feBlend mode="normal" in2="BackgroundImageFix" result="effect1_dropShadow_807_592"/>
<feBlend mode="normal" in="SourceGraphic" in2="effect1_dropShadow_807_592" result="shape"/>
</filter>
<filter id="filter3_d_807_592" x="226.449" y="174" width="106.807" height="33" filterUnits="userSpaceOnUse" color-interpolation-filters="sRGB">
<feFlood flood-opacity="0" result="BackgroundImageFix"/>
<feColorMatrix in="SourceAlpha" type="matrix" values="0 0 0 0 0 0 0 0 0 0 0 0 0 0 0 0 0 0 127 0" result="hardAlpha"/>
<feOffset dy="4"/>
<feGaussianBlur stdDeviation="2"/>
<feComposite in2="hardAlpha" operator="out"/>
<feColorMatrix type="matrix" values="0 0 0 0 0 0 0 0 0 0 0 0 0 0 0 0 0 0 0.25 0"/>
<feBlend mode="normal" in2="BackgroundImageFix" result="effect1_dropShadow_807_592"/>
<feBlend mode="normal" in="SourceGraphic" in2="effect1_dropShadow_807_592" result="shape"/>
</filter>
<filter id="filter4_d_807_592" x="0.890625" y="209" width="120.779" height="33" filterUnits="userSpaceOnUse" color-interpolation-filters="sRGB">
<feFlood flood-opacity="0" result="BackgroundImageFix"/>
<feColorMatrix in="SourceAlpha" type="matrix" values="0 0 0 0 0 0 0 0 0 0 0 0 0 0 0 0 0 0 127 0" result="hardAlpha"/>
<feOffset dy="4"/>
<feGaussianBlur stdDeviation="2"/>
<feComposite in2="hardAlpha" operator="out"/>
<feColorMatrix type="matrix" values="0 0 0 0 0 0 0 0 0 0 0 0 0 0 0 0 0 0 0.25 0"/>
<feBlend mode="normal" in2="BackgroundImageFix" result="effect1_dropShadow_807_592"/>
<feBlend mode="normal" in="SourceGraphic" in2="effect1_dropShadow_807_592" result="shape"/>
</filter>
<filter id="filter5_d_807_592" x="164.57" y="231" width="106.807" height="33" filterUnits="userSpaceOnUse" color-interpolation-filters="sRGB">
<feFlood flood-opacity="0" result="BackgroundImageFix"/>
<feColorMatrix in="SourceAlpha" type="matrix" values="0 0 0 0 0 0 0 0 0 0 0 0 0 0 0 0 0 0 127 0" result="hardAlpha"/>
<feOffset dy="4"/>
<feGaussianBlur stdDeviation="2"/>
<feComposite in2="hardAlpha" operator="out"/>
<feColorMatrix type="matrix" values="0 0 0 0 0 0 0 0 0 0 0 0 0 0 0 0 0 0 0.25 0"/>
<feBlend mode="normal" in2="BackgroundImageFix" result="effect1_dropShadow_807_592"/>
<feBlend mode="normal" in="SourceGraphic" in2="effect1_dropShadow_807_592" result="shape"/>
</filter>
<filter id="filter6_d_807_592" x="82.7305" y="302" width="106.807" height="33" filterUnits="userSpaceOnUse" color-interpolation-filters="sRGB">
<feFlood flood-opacity="0" result="BackgroundImageFix"/>
<feColorMatrix in="SourceAlpha" type="matrix" values="0 0 0 0 0 0 0 0 0 0 0 0 0 0 0 0 0 0 127 0" result="hardAlpha"/>
<feOffset dy="4"/>
<feGaussianBlur stdDeviation="2"/>
<feComposite in2="hardAlpha" operator="out"/>
<feColorMatrix type="matrix" values="0 0 0 0 0 0 0 0 0 0 0 0 0 0 0 0 0 0 0.25 0"/>
<feBlend mode="normal" in2="BackgroundImageFix" result="effect1_dropShadow_807_592"/>
<feBlend mode="normal" in="SourceGraphic" in2="effect1_dropShadow_807_592" result="shape"/>
</filter>
<linearGradient id="paint0_linear_807_592" x1="77.0971" y1="138.031" x2="98.7648" y2="188.961" gradientUnits="userSpaceOnUse">
<stop stop-color="#B3CCDE" stop-opacity="0.5"/>
<stop offset="1" stop-color="white"/>
</linearGradient>
<linearGradient id="paint1_linear_807_592" x1="117.766" y1="226.893" x2="123.133" y2="232.912" gradientUnits="userSpaceOnUse">
<stop stop-color="#B3CCDE" stop-opacity="0.5"/>
<stop offset="1" stop-color="white"/>
</linearGradient>
<linearGradient id="paint2_linear_807_592" x1="122.943" y1="30.1586" x2="137.937" y2="60.5879" gradientUnits="userSpaceOnUse">
<stop stop-color="#B3CCDE" stop-opacity="0.5"/>
<stop offset="1" stop-color="white"/>
</linearGradient>
<linearGradient id="paint3_linear_807_592" x1="141.759" y1="49.0765" x2="158.704" y2="80.1851" gradientUnits="userSpaceOnUse">
<stop stop-color="#B3CCDE" stop-opacity="0.5"/>
<stop offset="1" stop-color="white"/>
</linearGradient>
<linearGradient id="paint4_linear_807_592" x1="123.785" y1="56.7604" x2="141.701" y2="87.3127" gradientUnits="userSpaceOnUse">
<stop stop-color="#B3CCDE" stop-opacity="0.5"/>
<stop offset="1" stop-color="white"/>
</linearGradient>
<linearGradient id="paint5_linear_807_592" x1="160.401" y1="68.6572" x2="174.787" y2="98.4473" gradientUnits="userSpaceOnUse">
<stop stop-color="#B3CCDE" stop-opacity="0.5"/>
<stop offset="1" stop-color="white"/>
</linearGradient>
<linearGradient id="paint6_linear_807_592" x1="128.958" y1="74.5682" x2="147.988" y2="107.517" gradientUnits="userSpaceOnUse">
<stop stop-color="#B3CCDE" stop-opacity="0.5"/>
<stop offset="1" stop-color="white"/>
</linearGradient>
<linearGradient id="paint7_linear_807_592" x1="92.2099" y1="82.1527" x2="128.322" y2="159.701" gradientUnits="userSpaceOnUse">
<stop stop-color="#B3CCDE" stop-opacity="0.5"/>
<stop offset="1" stop-color="white"/>
</linearGradient>
<linearGradient id="paint8_linear_807_592" x1="162.752" y1="78.9763" x2="197.668" y2="149.593" gradientUnits="userSpaceOnUse">
<stop stop-color="#B3CCDE" stop-opacity="0.5"/>
<stop offset="1" stop-color="white"/>
</linearGradient>
<linearGradient id="paint9_linear_807_592" x1="137.059" y1="115.468" x2="162.379" y2="182.219" gradientUnits="userSpaceOnUse">
<stop stop-color="#B3CCDE" stop-opacity="0.5"/>
<stop offset="1" stop-color="white"/>
</linearGradient>
<linearGradient id="paint10_linear_807_592" x1="217.969" y1="110.047" x2="231.86" y2="147.795" gradientUnits="userSpaceOnUse">
<stop stop-color="#B3CCDE" stop-opacity="0.5"/>
<stop offset="1" stop-color="white"/>
</linearGradient>
<linearGradient id="paint11_linear_807_592" x1="121.523" y1="164.281" x2="151.445" y2="233.457" gradientUnits="userSpaceOnUse">
<stop stop-color="#B3CCDE" stop-opacity="0.5"/>
<stop offset="1" stop-color="white"/>
</linearGradient>
<linearGradient id="paint12_linear_807_592" x1="128.519" y1="199.136" x2="169.872" y2="250.449" gradientUnits="userSpaceOnUse">
<stop stop-color="#B3CCDE" stop-opacity="0.5"/>
<stop offset="1" stop-color="white"/>
</linearGradient>
<linearGradient id="paint13_linear_807_592" x1="132.849" y1="253.839" x2="159.943" y2="283.353" gradientUnits="userSpaceOnUse">
<stop stop-color="#B3CCDE" stop-opacity="0.5"/>
<stop offset="1" stop-color="white"/>
</linearGradient>
<linearGradient id="paint14_linear_807_592" x1="255.098" y1="105.116" x2="260.275" y2="114.508" gradientUnits="userSpaceOnUse">
<stop stop-color="#B3CCDE" stop-opacity="0.5"/>
<stop offset="1" stop-color="white"/>
</linearGradient>
<linearGradient id="paint15_linear_807_592" x1="298.855" y1="90.6454" x2="308.184" y2="124.837" gradientUnits="userSpaceOnUse">
<stop stop-color="#B3CCDE" stop-opacity="0.5"/>
<stop offset="1" stop-color="white"/>
</linearGradient>
<linearGradient id="paint16_linear_807_592" x1="308.454" y1="115.619" x2="318.341" y2="134.1" gradientUnits="userSpaceOnUse">
<stop stop-color="#B3CCDE" stop-opacity="0.5"/>
<stop offset="1" stop-color="white"/>
</linearGradient>
<linearGradient id="paint17_linear_807_592" x1="305.095" y1="129.663" x2="314.55" y2="146.767" gradientUnits="userSpaceOnUse">
<stop stop-color="#B3CCDE" stop-opacity="0.5"/>
<stop offset="1" stop-color="white"/>
</linearGradient>
<linearGradient id="paint18_linear_807_592" x1="296.18" y1="141.301" x2="312.125" y2="155.7" gradientUnits="userSpaceOnUse">
<stop stop-color="#B3CCDE" stop-opacity="0.5"/>
<stop offset="1" stop-color="white"/>
</linearGradient>
<linearGradient id="paint19_linear_807_592" x1="217.489" y1="132.861" x2="232.065" y2="169.573" gradientUnits="userSpaceOnUse">
<stop stop-color="#B3CCDE" stop-opacity="0.5"/>
<stop offset="1" stop-color="white"/>
</linearGradient>
<linearGradient id="paint20_linear_807_592" x1="281.349" y1="104.387" x2="297.441" y2="150.243" gradientUnits="userSpaceOnUse">
<stop stop-color="#B3CCDE" stop-opacity="0.5"/>
<stop offset="1" stop-color="white"/>
</linearGradient>
<linearGradient id="paint21_linear_807_592" x1="276.248" y1="125.145" x2="278.982" y2="138.638" gradientUnits="userSpaceOnUse">
<stop stop-color="#B3CCDE" stop-opacity="0.5"/>
<stop offset="1" stop-color="white"/>
</linearGradient>
<linearGradient id="paint22_linear_807_592" x1="124.72" y1="11.8889" x2="144.241" y2="64.4234" gradientUnits="userSpaceOnUse">
<stop stop-color="#B3CCDE" stop-opacity="0.5"/>
<stop offset="1" stop-color="white"/>
</linearGradient>
<linearGradient id="paint23_linear_807_592" x1="241.125" y1="111.907" x2="278.211" y2="157.13" gradientUnits="userSpaceOnUse">
<stop stop-color="#B3CCDE" stop-opacity="0.5"/>
<stop offset="1" stop-color="white"/>
</linearGradient>
<linearGradient id="paint24_linear_807_592" x1="187.115" y1="143.414" x2="227.04" y2="190.844" gradientUnits="userSpaceOnUse">
<stop stop-color="#B3CCDE" stop-opacity="0.5"/>
<stop offset="1" stop-color="white"/>
</linearGradient>
<linearGradient id="paint25_linear_807_592" x1="202.811" y1="160.024" x2="224.33" y2="210.668" gradientUnits="userSpaceOnUse">
<stop stop-color="#B3CCDE" stop-opacity="0.5"/>
<stop offset="1" stop-color="white"/>
</linearGradient>
<linearGradient id="paint26_linear_807_592" x1="158.701" y1="186.058" x2="178.094" y2="225.507" gradientUnits="userSpaceOnUse">
<stop stop-color="#B3CCDE" stop-opacity="0.5"/>
<stop offset="1" stop-color="white"/>
</linearGradient>
<linearGradient id="paint27_linear_807_592" x1="148.838" y1="246.198" x2="180.095" y2="290.334" gradientUnits="userSpaceOnUse">
<stop stop-color="#B3CCDE" stop-opacity="0.5"/>
<stop offset="1" stop-color="white"/>
</linearGradient>
<linearGradient id="paint28_linear_807_592" x1="160.963" y1="192.621" x2="189.783" y2="260.746" gradientUnits="userSpaceOnUse">
<stop stop-color="#B3CCDE" stop-opacity="0.5"/>
<stop offset="1" stop-color="white"/>
</linearGradient>
<linearGradient id="paint29_linear_807_592" x1="286.251" y1="140.711" x2="295.254" y2="154.111" gradientUnits="userSpaceOnUse">
<stop stop-color="#B3CCDE" stop-opacity="0.5"/>
<stop offset="1" stop-color="white"/>
</linearGradient>
</defs>
</svg>
