<svg width="30" height="27" viewBox="0 0 30 27" fill="none" xmlns="http://www.w3.org/2000/svg">
<path d="M11.7559 10.4591L14.9754 9.05242L18.1949 10.4591V3.77728H11.7559V10.4591ZM6.92664 20.6577V17.8443H14.9754V20.6577H6.92664ZM3.70712 26.2846C2.82176 26.2846 2.06383 26.0091 1.43334 25.4581C0.802854 24.9072 0.48761 24.2448 0.48761 23.4712V3.77728C0.48761 3.00359 0.802854 2.34127 1.43334 1.79031C2.06383 1.23935 2.82176 0.963867 3.70712 0.963867H26.2437C27.1291 0.963867 27.887 1.23935 28.5175 1.79031C29.148 2.34127 29.4632 3.00359 29.4632 3.77728V23.4712C29.4632 24.2448 29.148 24.9072 28.5175 25.4581C27.887 26.0091 27.1291 26.2846 26.2437 26.2846H3.70712ZM3.70712 23.4712H26.2437V3.77728H21.4144V15.0309L14.9754 12.2175L8.53639 15.0309V3.77728H3.70712V23.4712Z" fill="#649BC5"/>
</svg>
