<svg width="30" height="27" viewBox="0 0 30 27" fill="none" xmlns="http://www.w3.org/2000/svg">
<path d="M13.4147 23.0243V14.3519L3.75617 9.95247V18.6248L13.4147 23.0243ZM16.6342 23.0243L26.2928 18.6248V9.95247L16.6342 14.3519V23.0243ZM13.4147 25.9362L2.14641 20.8404C1.63665 20.6083 1.24092 20.3023 0.959213 19.9225C0.677505 19.5427 0.536652 19.1207 0.536652 18.6565V8.59148C0.536652 8.12727 0.677505 7.70526 0.959213 7.32545C1.24092 6.94564 1.63665 6.63968 2.14641 6.40757L13.4147 1.31178C13.9245 1.07968 14.461 0.963623 15.0245 0.963623C15.5879 0.963623 16.1245 1.07968 16.6342 1.31178L27.9025 6.40757C28.4123 6.63968 28.808 6.94564 29.0897 7.32545C29.3714 7.70526 29.5123 8.12727 29.5123 8.59148V18.6565C29.5123 19.1207 29.3714 19.5427 29.0897 19.9225C28.808 20.3023 28.4123 20.6083 27.9025 20.8404L16.6342 25.9362C16.1245 26.1683 15.5879 26.2843 15.0245 26.2843C14.461 26.2843 13.9245 26.1683 13.4147 25.9362ZM21.4635 9.2245L24.5623 7.83186L15.0245 3.49569L11.8854 4.91998L21.4635 9.2245ZM15.0245 12.168L18.1635 10.7437L8.62568 6.40757L5.48665 7.83186L15.0245 12.168Z" fill="#649BC5"/>
</svg>
