<svg width="30" height="26" viewBox="0 0 30 26" fill="none" xmlns="http://www.w3.org/2000/svg">
<path d="M0.170837 25.3969V17.8007H5.96596V25.3969H0.170837ZM9.82938 25.3969V10.3311C8.21962 10.6898 7.17328 11.3492 6.69035 12.3092C6.20742 13.2693 5.96596 14.2558 5.96596 15.2686H2.10255C2.10255 12.5677 3.30986 10.4155 5.7245 8.81181C8.13913 7.20817 11.4391 6.40635 15.6245 6.40635C18.844 6.40635 21.2586 5.88411 22.8684 4.83963C24.4782 3.79515 25.283 2.20733 25.283 0.0761719H29.1465C29.1465 1.93302 28.5428 3.59469 27.3355 5.06118C26.1282 6.52767 24.1562 7.56688 21.4196 8.17879V25.3969H17.5562V17.8007H13.6928V25.3969H9.82938ZM15.6245 5.14031C14.5621 5.14031 13.6525 4.89238 12.896 4.39652C12.1394 3.90065 11.7611 3.30456 11.7611 2.60824C11.7611 1.91192 12.1394 1.31583 12.896 0.819967C13.6525 0.324104 14.5621 0.0761719 15.6245 0.0761719C16.6869 0.0761719 17.5965 0.324104 18.353 0.819967C19.1096 1.31583 19.4879 1.91192 19.4879 2.60824C19.4879 3.30456 19.1096 3.90065 18.353 4.39652C17.5965 4.89238 16.6869 5.14031 15.6245 5.14031Z" fill="#649BC5"/>
</svg>
