<svg width="30" height="27" viewBox="0 0 30 27" fill="none" xmlns="http://www.w3.org/2000/svg">
<path d="M14.6342 13.6223C15.9756 13.6223 17.1159 13.212 18.0549 12.3914C18.9939 11.5708 19.4634 10.5744 19.4634 9.40215C19.4634 8.22989 18.9939 7.23347 18.0549 6.4129C17.1159 5.59232 15.9756 5.18203 14.6342 5.18203C13.2927 5.18203 12.1525 5.59232 11.2134 6.4129C10.2744 7.23347 9.8049 8.22989 9.8049 9.40215C9.8049 10.5744 10.2744 11.5708 11.2134 12.3914C12.1525 13.212 13.2927 13.6223 14.6342 13.6223ZM12.2195 10.1055C12.0049 10.1055 11.8171 10.0352 11.6561 9.89449C11.4951 9.75382 11.4147 9.58971 11.4147 9.40215C11.4147 9.21458 11.4951 9.05047 11.6561 8.9098C11.8171 8.76913 12.0049 8.69879 12.2195 8.69879C12.4342 8.69879 12.622 8.76913 12.783 8.9098C12.9439 9.05047 13.0244 9.21458 13.0244 9.40215C13.0244 9.58971 12.9439 9.75382 12.783 9.89449C12.622 10.0352 12.4342 10.1055 12.2195 10.1055ZM14.6342 10.1055C14.4195 10.1055 14.2317 10.0352 14.0708 9.89449C13.9098 9.75382 13.8293 9.58971 13.8293 9.40215C13.8293 9.21458 13.9098 9.05047 14.0708 8.9098C14.2317 8.76913 14.4195 8.69879 14.6342 8.69879C14.8488 8.69879 15.0366 8.76913 15.1976 8.9098C15.3586 9.05047 15.439 9.21458 15.439 9.40215C15.439 9.58971 15.3586 9.75382 15.1976 9.89449C15.0366 10.0352 14.8488 10.1055 14.6342 10.1055ZM17.0488 10.1055C16.8342 10.1055 16.6464 10.0352 16.4854 9.89449C16.3244 9.75382 16.2439 9.58971 16.2439 9.40215C16.2439 9.21458 16.3244 9.05047 16.4854 8.9098C16.6464 8.76913 16.8342 8.69879 17.0488 8.69879C17.2634 8.69879 17.4512 8.76913 17.6122 8.9098C17.7732 9.05047 17.8537 9.21458 17.8537 9.40215C17.8537 9.58971 17.7732 9.75382 17.6122 9.89449C17.4512 10.0352 17.2634 10.1055 17.0488 10.1055ZM3.36588 26.2826C2.48051 26.2826 1.72258 26.0071 1.09209 25.4562C0.461606 24.9052 0.146362 24.2429 0.146362 23.4692V3.77532C0.146362 3.00164 0.461606 2.33931 1.09209 1.78835C1.72258 1.23739 2.48051 0.961914 3.36588 0.961914H25.9025C26.7878 0.961914 27.5458 1.23739 28.1762 1.78835C28.8067 2.33931 29.122 3.00164 29.122 3.77532V23.4692C29.122 24.2429 28.8067 24.9052 28.1762 25.4562C27.5458 26.0071 26.7878 26.2826 25.9025 26.2826H3.36588ZM3.36588 23.4692H25.9025V3.77532H3.36588V23.4692Z" fill="#649BC5"/>
</svg>
